<svg version="1.1" xmlns="http://www.w3.org/2000/svg" viewBox="0 0 2626.4999999999995 942.5" width="2626.4999999999995" height="942.5">
  <!-- svg-source:excalidraw -->
  
  <defs>
    <style class="style-fonts">
      @font-face {
        font-family: "Virgil";
        src: url("https://excalidraw.com/Virgil.woff2");
      }
      @font-face {
        font-family: "Cascadia";
        src: url("https://excalidraw.com/Cascadia.woff2");
      }
      @font-face {
        font-family: "Assistant";
        src: url("https://excalidraw.com/Assistant-Regular.woff2");
      }
    </style>
    
  </defs>
  <g stroke-linecap="round" transform="translate(486 305.5) rotate(0 228 101.5)"><path d="M32 0 C169.51 -4.04, 304.53 -0.1, 424 0 C447.03 -1.64, 457.91 12.49, 456 32 C453.07 69.37, 452.93 110.78, 456 171 C456.71 195.66, 444.74 202.6, 424 203 C306.22 204.66, 188.24 205.49, 32 203 C7.39 203.94, -0.94 189.44, 0 171 C-1.44 119.53, -0.42 65.48, 0 32 C-0.61 12.24, 14.23 -1.37, 32 0" stroke="none" stroke-width="0" fill="#eaddd7"></path><path d="M32 0 C146.45 -0.56, 261.25 -0.07, 424 0 M32 0 C188.82 1.22, 345.4 1.02, 424 0 M424 0 C446.02 1.74, 454.08 9.76, 456 32 M424 0 C446.97 1.29, 456.73 10.5, 456 32 M456 32 C453.63 65.2, 456.05 98.39, 456 171 M456 32 C457.34 65.25, 456.85 96.34, 456 171 M456 171 C454.45 190.58, 443.37 201.17, 424 203 M456 171 C455.03 191.62, 445.77 204.66, 424 203 M424 203 C296.74 204.85, 167.04 205.14, 32 203 M424 203 C301.23 202.72, 177.59 202.9, 32 203 M32 203 C10.73 202.4, -1.43 192.52, 0 171 M32 203 C10.48 201.42, -1.42 193.68, 0 171 M0 171 C1.08 131.88, -1.08 92.21, 0 32 M0 171 C-0.07 130.64, 0.79 92.55, 0 32 M0 32 C-0.06 11, 11.57 1.94, 32 0 M0 32 C-2.26 10.42, 10.99 0.57, 32 0" stroke="#1e1e1e" stroke-width="2" fill="none"></path></g><g transform="translate(655.1375007629395 394.5) rotate(0 58.86249923706055 12.5)"><text x="58.86249923706055" y="17.52" font-family="Virgil, Segoe UI Emoji" font-size="20px" fill="#1e1e1e" text-anchor="middle" style="white-space: pre;" direction="ltr" dominant-baseline="alphabetic">Discotheque</text></g><g stroke-linecap="round" transform="translate(670 559.5) rotate(0 35.5 35.5)"><path d="M42.63 0.69 C49.4 1.72, 58.44 7.79, 63.01 13 C67.59 18.2, 69.58 25.16, 70.08 31.92 C70.58 38.69, 69.3 47.52, 66.02 53.59 C62.74 59.67, 56.68 65.7, 50.42 68.36 C44.15 71.01, 35.45 71.24, 28.42 69.52 C21.39 67.8, 12.83 63.23, 8.25 58.04 C3.67 52.85, 1.39 45.14, 0.92 38.39 C0.44 31.65, 1.83 23.35, 5.38 17.55 C8.92 11.76, 15.32 6.22, 22.18 3.62 C29.04 1.02, 42.36 2.18, 46.52 1.95 C50.67 1.73, 47.37 1.65, 47.11 2.28 M38.6 -0.5 C45.54 -0.37, 55.05 4.03, 60.32 8.79 C65.59 13.55, 68.92 21.43, 70.19 28.06 C71.46 34.69, 70.91 42.46, 67.93 48.56 C64.95 54.66, 58.26 60.93, 52.34 64.63 C46.41 68.33, 39.27 71.14, 32.37 70.76 C25.46 70.37, 15.96 67.08, 10.92 62.31 C5.87 57.54, 3.55 49.08, 2.08 42.13 C0.61 35.17, -0.4 26.99, 2.11 20.59 C4.63 14.19, 11.28 7.1, 17.19 3.74 C23.1 0.38, 33.78 1.08, 37.58 0.42 C41.38 -0.25, 39.6 -0.64, 39.99 -0.24" stroke="none" stroke-width="0" fill="#ffd8a8"></path><path d="M38.82 1 C45.23 0.97, 52.39 4.46, 57.54 8.67 C62.69 12.88, 67.78 19.62, 69.73 26.27 C71.67 32.92, 71.69 42.11, 69.23 48.57 C66.76 55.03, 60.9 61.37, 54.95 65.03 C49 68.69, 40.49 70.96, 33.52 70.52 C26.56 70.09, 18.51 66.68, 13.17 62.42 C7.82 58.15, 3.27 51.58, 1.45 44.92 C-0.37 38.25, -0.33 29.18, 2.27 22.44 C4.86 15.7, 10.57 8.01, 17.03 4.48 C23.5 0.95, 36.98 1.89, 41.03 1.26 C45.09 0.63, 41.52 0.17, 41.38 0.7 M37.19 -0.92 C44.13 -0.93, 52.44 4.38, 57.73 8.55 C63.02 12.73, 67.21 17.84, 68.94 24.13 C70.67 30.43, 70.22 39.34, 68.1 46.33 C65.99 53.31, 61.85 61.99, 56.24 66.06 C50.63 70.14, 41.35 71.24, 34.47 70.79 C27.58 70.34, 20.32 67.68, 14.93 63.35 C9.55 59.02, 4.17 51.42, 2.16 44.81 C0.15 38.21, 0.8 29.96, 2.89 23.72 C4.97 17.48, 9.18 11.34, 14.66 7.38 C20.15 3.42, 32.08 1.31, 35.78 -0.03 C39.49 -1.36, 36.97 -1.03, 36.88 -0.6" stroke="#f08c00" stroke-width="2" fill="none"></path></g><g transform="translate(659 633.5) rotate(0 51 12.5)"><text x="0" y="17.52" font-family="Virgil, Segoe UI Emoji" font-size="20px" fill="#f08c00" text-anchor="start" style="white-space: pre;" direction="ltr" dominant-baseline="alphabetic">Bouncer A</text></g><g stroke-linecap="round" transform="translate(1008 366.5) rotate(0 35.5 35.5)"><path d="M51.57 4.41 C57.69 7.22, 64.62 14, 67.67 20.08 C70.73 26.16, 71.23 34.17, 69.92 40.89 C68.6 47.61, 64.74 55.62, 59.76 60.41 C54.78 65.2, 46.83 68.42, 40.04 69.65 C33.25 70.89, 25.01 70.99, 19.05 67.82 C13.08 64.64, 7.3 56.98, 4.26 50.61 C1.21 44.25, -0.47 36.24, 0.77 29.61 C2 22.98, 6.6 15.85, 11.66 10.85 C16.73 5.84, 23.49 0.13, 31.16 -0.42 C38.84 -0.97, 52.75 5.59, 57.73 7.57 C62.71 9.54, 61.61 10.85, 61.04 11.43 M28.05 1.23 C34.54 -1.12, 42.33 -0.18, 48.78 2.19 C55.24 4.56, 63.01 9.64, 66.79 15.47 C70.57 21.3, 72.1 29.85, 71.45 37.15 C70.8 44.45, 67.53 53.66, 62.9 59.28 C58.27 64.9, 50.51 69.2, 43.68 70.86 C36.85 72.51, 28.28 72.08, 21.93 69.2 C15.57 66.32, 9.14 59.54, 5.54 53.57 C1.95 47.59, 0.03 40.29, 0.35 33.36 C0.67 26.43, 3.05 17.35, 7.48 11.97 C11.92 6.59, 23.54 2.58, 26.94 1.08 C30.35 -0.43, 27.99 2.22, 27.9 2.93" stroke="#1e1e1e" stroke-width="2" fill="none"></path></g><g transform="translate(997 440.5) rotate(0 51 12.5)"><text x="0" y="17.52" font-family="Virgil, Segoe UI Emoji" font-size="20px" fill="#1e1e1e" text-anchor="start" style="white-space: pre;" direction="ltr" dominant-baseline="alphabetic">Bouncer B</text></g><g stroke-linecap="round" transform="translate(668.2049180327867 467.5) rotate(0 18.84836065573768 36.5)"><path d="M9.42 0 C16.64 -1.53, 22.49 3.4, 28.27 0 C37.5 1.09, 41.29 1.8, 37.7 9.42 C35.12 21.43, 40.12 40.04, 37.7 63.58 C38.23 67.33, 36.94 71.34, 28.27 73 C23.92 69.87, 19.38 71.11, 9.42 73 C4.98 73.12, 2.46 71.94, 0 63.58 C2.27 42.61, 2.16 20.02, 0 9.42 C-0.94 1.25, 2.72 1.12, 9.42 0" stroke="none" stroke-width="0" fill="#ffc9c9"></path><path d="M9.42 0 C16.63 0.78, 22.04 1.34, 28.27 0 M9.42 0 C14.4 -0.36, 21.15 -0.44, 28.27 0 M28.27 0 C33.31 -1.28, 36.43 1.91, 37.7 9.42 M28.27 0 C33.09 -0.8, 38.47 4.07, 37.7 9.42 M37.7 9.42 C38.42 24.04, 37.21 35.96, 37.7 63.58 M37.7 9.42 C36.94 30.97, 37.58 51.53, 37.7 63.58 M37.7 63.58 C39.17 71.04, 33.59 73.37, 28.27 73 M37.7 63.58 C39.46 70.77, 35.22 74.73, 28.27 73 M28.27 73 C23.24 71.92, 19.18 74.17, 9.42 73 M28.27 73 C21.83 72.39, 14.78 72.56, 9.42 73 M9.42 73 C3.42 71.03, 1.94 71.22, 0 63.58 M9.42 73 C0.97 72.37, 1.98 71.26, 0 63.58 M0 63.58 C0.4 53.33, 1.01 41.64, 0 9.42 M0 63.58 C0.48 45.81, 0.35 27.59, 0 9.42 M0 9.42 C-1.79 4.43, 1.42 -1.56, 9.42 0 M0 9.42 C1.87 2.08, 3.36 -0.78, 9.42 0" stroke="#1e1e1e" stroke-width="2" fill="none"></path></g><g stroke-linecap="round" transform="translate(698.122950819672 504.5983606557377) rotate(0 2.393442622950829 3.5901639344262435)"><path d="M2.26 0.19 C2.75 0.1, 3.52 0.39, 3.89 0.83 C4.27 1.27, 4.34 2.05, 4.5 2.82 C4.66 3.59, 5.02 4.78, 4.85 5.45 C4.68 6.12, 3.98 6.55, 3.46 6.86 C2.93 7.16, 2.21 7.47, 1.71 7.27 C1.21 7.06, 0.7 6.34, 0.46 5.61 C0.22 4.88, 0.24 3.69, 0.24 2.88 C0.24 2.07, 0.07 1.28, 0.46 0.77 C0.86 0.25, 2.31 -0.05, 2.6 -0.22 C2.89 -0.38, 2.22 -0.34, 2.2 -0.23 M1.74 0.08 C2.08 0.03, 2.86 0.66, 3.3 1 C3.74 1.34, 4.11 1.4, 4.39 2.11 C4.68 2.82, 5.13 4.53, 5 5.27 C4.87 6.02, 4.17 6.35, 3.59 6.6 C3.02 6.86, 2 6.92, 1.55 6.79 C1.1 6.65, 1.09 6.31, 0.89 5.79 C0.69 5.28, 0.32 4.55, 0.35 3.71 C0.38 2.87, 0.8 1.45, 1.05 0.77 C1.3 0.09, 1.71 -0.2, 1.84 -0.39 C1.96 -0.58, 1.7 -0.57, 1.8 -0.39" stroke="none" stroke-width="0" fill="#1e1e1e"></path><path d="M2.73 -0.15 C3.21 -0.1, 3.65 0.53, 4.01 1.1 C4.38 1.67, 4.92 2.49, 4.93 3.27 C4.95 4.04, 4.42 5.11, 4.08 5.77 C3.74 6.42, 3.33 6.96, 2.9 7.19 C2.46 7.42, 1.88 7.42, 1.48 7.13 C1.07 6.84, 0.72 6.15, 0.46 5.46 C0.19 4.77, -0.23 3.78, -0.12 2.98 C-0.01 2.18, 0.64 1.19, 1.11 0.64 C1.58 0.09, 2.47 -0.2, 2.71 -0.32 C2.94 -0.44, 2.54 -0.22, 2.51 -0.09 M2.08 -0.07 C2.55 -0.03, 3.37 0.39, 3.82 0.91 C4.28 1.44, 4.7 2.33, 4.8 3.08 C4.91 3.83, 4.75 4.78, 4.46 5.44 C4.16 6.1, 3.62 6.73, 3.04 7.04 C2.47 7.35, 1.4 7.53, 1.01 7.3 C0.61 7.06, 0.79 6.31, 0.68 5.64 C0.57 4.97, 0.3 4.03, 0.34 3.28 C0.38 2.53, 0.58 1.67, 0.93 1.15 C1.28 0.63, 2.17 0.31, 2.43 0.16 C2.69 0, 2.48 0.19, 2.5 0.22" stroke="#1e1e1e" stroke-width="2" fill="none"></path></g><g stroke-linecap="round" transform="translate(705.3032786885246 467.5) rotate(0 18.84836065573768 36.5)"><path d="M9.42 0 C14.58 0.73, 21.57 3.38, 28.27 0 C32.72 1.27, 37.05 4.97, 37.7 9.42 C38.55 22.46, 39.44 44.42, 37.7 63.58 C36.06 68.44, 34.43 75.81, 28.27 73 C21.81 70.3, 23.47 76.17, 9.42 73 C3.06 72.31, -0.75 69.76, 0 63.58 C1.27 45.09, -0.99 23.52, 0 9.42 C-2.22 4.47, 5.5 1.8, 9.42 0" stroke="none" stroke-width="0" fill="#ffc9c9"></path><path d="M9.42 0 C15.03 -1.1, 21.91 1.12, 28.27 0 M9.42 0 C16.06 0.39, 23.7 -0.02, 28.27 0 M28.27 0 C32.95 0.55, 38.79 2.69, 37.7 9.42 M28.27 0 C33.8 0.59, 35.82 2.89, 37.7 9.42 M37.7 9.42 C36.33 25.06, 37.51 44.71, 37.7 63.58 M37.7 9.42 C37.41 23.2, 38.26 38.31, 37.7 63.58 M37.7 63.58 C35.87 71.4, 33.89 73.63, 28.27 73 M37.7 63.58 C38.43 71.49, 33.88 73.44, 28.27 73 M28.27 73 C24.26 72.12, 22.37 74.58, 9.42 73 M28.27 73 C21.49 72.22, 14.58 73.35, 9.42 73 M9.42 73 C4.36 73.53, -0.13 68.35, 0 63.58 M9.42 73 C2.23 70.71, 2.29 69.18, 0 63.58 M0 63.58 C1.82 53.5, 1.1 40.3, 0 9.42 M0 63.58 C0.7 47.95, -0.51 32.87, 0 9.42 M0 9.42 C-0.86 3.1, 3.2 1.87, 9.42 0 M0 9.42 C-1.63 3.02, 1.13 -0.13, 9.42 0" stroke="#1e1e1e" stroke-width="2" fill="none"></path></g><g stroke-linecap="round" transform="translate(708.295081967213 504.5983606557377) rotate(0 2.393442622950829 3.5901639344262435)"><path d="M2.43 -0.07 C2.87 -0.18, 2.99 -0.09, 3.36 0.38 C3.73 0.86, 4.43 1.99, 4.66 2.78 C4.89 3.57, 4.97 4.46, 4.73 5.11 C4.5 5.77, 3.69 6.34, 3.23 6.7 C2.78 7.06, 2.41 7.46, 2 7.26 C1.59 7.06, 1.14 6.2, 0.79 5.51 C0.45 4.81, -0.04 3.81, -0.09 3.09 C-0.14 2.36, 0.12 1.6, 0.49 1.14 C0.87 0.69, 1.91 0.51, 2.15 0.33 C2.4 0.15, 2.01 0.06, 1.96 0.07 M2.41 0.13 C2.91 0.27, 3.5 1.07, 3.85 1.65 C4.2 2.22, 4.47 2.87, 4.53 3.6 C4.59 4.33, 4.48 5.48, 4.21 6.02 C3.93 6.56, 3.42 6.71, 2.88 6.86 C2.34 7.02, 1.48 7.22, 0.97 6.96 C0.45 6.7, -0.14 6.06, -0.2 5.28 C-0.27 4.5, 0.39 3.08, 0.57 2.29 C0.76 1.51, 0.48 1, 0.9 0.55 C1.32 0.1, 2.79 -0.39, 3.09 -0.42 C3.38 -0.45, 2.81 0.32, 2.68 0.38" stroke="none" stroke-width="0" fill="#1e1e1e"></path><path d="M2.08 -0.14 C2.52 -0.32, 3.08 0.19, 3.55 0.6 C4.02 1.02, 4.74 1.63, 4.88 2.35 C5.02 3.08, 4.55 4.23, 4.37 4.95 C4.18 5.66, 4.17 6.27, 3.75 6.64 C3.33 7.02, 2.42 7.34, 1.84 7.2 C1.26 7.07, 0.56 6.4, 0.27 5.83 C-0.02 5.26, 0 4.59, 0.08 3.78 C0.16 2.97, 0.48 1.6, 0.75 0.96 C1.02 0.32, 1.48 0.11, 1.7 -0.05 C1.93 -0.22, 2.01 -0.11, 2.08 -0.03 M2.58 -0.45 C3.16 -0.61, 3.84 -0.01, 4.22 0.56 C4.6 1.12, 4.77 2.19, 4.88 2.94 C4.99 3.7, 5.12 4.5, 4.88 5.08 C4.64 5.65, 3.92 6.01, 3.42 6.41 C2.92 6.82, 2.4 7.69, 1.89 7.5 C1.37 7.31, 0.57 5.93, 0.34 5.26 C0.11 4.6, 0.35 4.3, 0.49 3.52 C0.63 2.75, 0.82 1.14, 1.18 0.6 C1.54 0.05, 2.52 0.26, 2.62 0.25 C2.73 0.23, 1.83 0.42, 1.79 0.49" stroke="#1e1e1e" stroke-width="2" fill="none"></path></g><g stroke-linecap="round" transform="translate(923.5123923752017 392.5381621027638) rotate(271.97493401088195 18.84836065573768 36.5)"><path d="M9.42 0 C16.29 -0.33, 20.59 1.46, 28.27 0 C33.68 3.09, 39.05 3.03, 37.7 9.42 C36.08 23.41, 36.72 42.57, 37.7 63.58 C40.98 70.61, 31.63 70.52, 28.27 73 C24.43 70.3, 17.51 72.01, 9.42 73 C-0.26 76.42, 2.19 73.01, 0 63.58 C-2.92 39.39, -2.8 17.78, 0 9.42 C-0.62 1.77, 4.84 1.03, 9.42 0" stroke="none" stroke-width="0" fill="#ffc9c9"></path><path d="M9.42 0 C12.84 -0.47, 18.3 1.94, 28.27 0 M9.42 0 C13.71 -0.64, 17.84 0.4, 28.27 0 M28.27 0 C32.77 -1.56, 39.56 4.35, 37.7 9.42 M28.27 0 C33.36 2.03, 38.33 3.26, 37.7 9.42 M37.7 9.42 C38.19 24.85, 36.82 42.52, 37.7 63.58 M37.7 9.42 C38.29 28.63, 37.26 46.78, 37.7 63.58 M37.7 63.58 C35.85 70.31, 33.92 74.46, 28.27 73 M37.7 63.58 C39.84 71.25, 34.39 73.95, 28.27 73 M28.27 73 C21.43 73.31, 12.18 71.69, 9.42 73 M28.27 73 C22.75 73.38, 17.95 72.11, 9.42 73 M9.42 73 C1.9 73.14, 1.64 68.43, 0 63.58 M9.42 73 C1.58 72.8, 0.43 72.02, 0 63.58 M0 63.58 C-0.76 44.52, -0.14 24.47, 0 9.42 M0 63.58 C-1.39 48.14, -0.81 31.78, 0 9.42 M0 9.42 C-1.32 4.55, 3.23 -0.25, 9.42 0 M0 9.42 C2.12 1.64, 1.18 -1.46, 9.42 0" stroke="#1e1e1e" stroke-width="2" fill="none"></path></g><g stroke-linecap="round" transform="translate(944.617316586156 412.1372266028935) rotate(271.97493401088195 2.393442622950829 3.5901639344262435)"><path d="M2.44 0.27 C2.96 0.14, 3.61 0.25, 3.97 0.66 C4.34 1.08, 4.52 2, 4.63 2.77 C4.74 3.53, 4.83 4.53, 4.63 5.25 C4.44 5.98, 3.95 6.85, 3.44 7.1 C2.93 7.35, 2.05 7.03, 1.58 6.78 C1.1 6.53, 0.88 6.22, 0.61 5.62 C0.35 5.01, -0.06 3.9, -0.02 3.15 C0.03 2.4, 0.54 1.61, 0.89 1.13 C1.25 0.66, 1.94 0.55, 2.12 0.32 C2.3 0.1, 2.01 -0.2, 1.98 -0.2 M1.96 0.08 C2.54 -0.12, 3.31 -0.01, 3.83 0.42 C4.35 0.85, 4.97 1.92, 5.1 2.66 C5.23 3.39, 4.8 4.19, 4.6 4.82 C4.39 5.46, 4.37 6.1, 3.87 6.46 C3.37 6.81, 2.18 6.98, 1.59 6.94 C0.99 6.9, 0.47 6.76, 0.28 6.2 C0.1 5.64, 0.47 4.47, 0.46 3.58 C0.44 2.69, 0.02 1.37, 0.2 0.85 C0.39 0.34, 1.26 0.63, 1.57 0.5 C1.88 0.38, 2.02 0.2, 2.04 0.11" stroke="none" stroke-width="0" fill="#1e1e1e"></path><path d="M2.93 0.18 C3.43 0.26, 3.68 0.95, 4.01 1.47 C4.35 1.98, 4.96 2.47, 4.96 3.26 C4.95 4.05, 4.3 5.57, 3.98 6.18 C3.66 6.8, 3.44 6.84, 3.03 6.95 C2.62 7.05, 1.99 7.16, 1.51 6.81 C1.03 6.45, 0.43 5.56, 0.17 4.82 C-0.09 4.08, -0.23 3.11, -0.04 2.38 C0.15 1.65, 0.85 0.78, 1.31 0.44 C1.77 0.1, 2.45 0.33, 2.74 0.32 C3.02 0.32, 3.03 0.37, 2.99 0.39 M2.3 0.16 C2.83 0.22, 3.55 0.99, 4.04 1.6 C4.53 2.21, 5.22 3.08, 5.25 3.82 C5.28 4.57, 4.55 5.54, 4.22 6.05 C3.88 6.57, 3.78 6.8, 3.25 6.92 C2.71 7.05, 1.52 7.23, 1.02 6.81 C0.53 6.39, 0.47 5.13, 0.26 4.4 C0.06 3.66, -0.37 3.06, -0.2 2.39 C-0.02 1.73, 0.82 0.77, 1.32 0.42 C1.81 0.06, 2.46 0.39, 2.77 0.26 C3.07 0.14, 3.21 -0.36, 3.15 -0.34" stroke="#1e1e1e" stroke-width="2" fill="none"></path></g><g stroke-linecap="round" transform="translate(924.790886313323 355.4618378972362) rotate(271.97493401088195 18.84836065573768 36.5)"><path d="M9.42 0 C13.91 2.8, 21.32 -0.23, 28.27 0 C33.84 2.49, 35.56 0.85, 37.7 9.42 C40.53 24.65, 34.33 35.9, 37.7 63.58 C34.22 73.22, 34.39 72.99, 28.27 73 C20.91 76.12, 22.01 75.87, 9.42 73 C6.38 75.97, -3.12 67.74, 0 63.58 C-0.08 50.58, 2.24 41.36, 0 9.42 C0.67 0.77, 1.73 -1.03, 9.42 0" stroke="none" stroke-width="0" fill="#ffc9c9"></path><path d="M9.42 0 C12.79 0.99, 20.44 0.55, 28.27 0 M9.42 0 C13.11 -0.83, 19.37 0.47, 28.27 0 M28.27 0 C33.52 1.77, 38.25 3.25, 37.7 9.42 M28.27 0 C34.35 -1.25, 37.58 4.05, 37.7 9.42 M37.7 9.42 C38.29 26.24, 35.75 40.48, 37.7 63.58 M37.7 9.42 C36.32 30.96, 36.92 52.77, 37.7 63.58 M37.7 63.58 C39.56 71.06, 34.41 73.83, 28.27 73 M37.7 63.58 C39.5 68.98, 33.58 73.35, 28.27 73 M28.27 73 C22.1 73.47, 15.82 72.89, 9.42 73 M28.27 73 C21.2 72.9, 16.07 72.16, 9.42 73 M9.42 73 C1.78 72.83, 0.38 71.74, 0 63.58 M9.42 73 C4.84 74.77, 0.45 69.46, 0 63.58 M0 63.58 C-0.21 45.89, -1.63 22.83, 0 9.42 M0 63.58 C-0.49 45.72, 0.22 26.33, 0 9.42 M0 9.42 C1.84 1.83, 1.43 -1.27, 9.42 0 M0 9.42 C-0.27 1.17, 1.23 0.97, 9.42 0" stroke="#1e1e1e" stroke-width="2" fill="none"></path></g><g stroke-linecap="round" transform="translate(944.9678713756418 401.97113770782937) rotate(271.97493401088195 2.393442622950829 3.5901639344262435)"><path d="M2.63 0.23 C3.08 0.3, 3.84 0.8, 4.19 1.38 C4.55 1.96, 4.78 3.02, 4.76 3.7 C4.74 4.38, 4.33 4.91, 4.04 5.45 C3.76 6, 3.53 6.8, 3.07 6.98 C2.61 7.17, 1.72 6.9, 1.28 6.57 C0.84 6.24, 0.63 5.63, 0.42 5 C0.22 4.38, -0.01 3.63, 0.06 2.84 C0.14 2.06, 0.46 0.77, 0.87 0.29 C1.29 -0.18, 2.27 0.08, 2.54 0 C2.82 -0.07, 2.48 -0.2, 2.53 -0.15 M2.86 0.19 C3.31 0.16, 3.57 0.35, 3.94 0.77 C4.32 1.2, 5.07 1.97, 5.1 2.72 C5.13 3.47, 4.49 4.49, 4.13 5.27 C3.77 6.04, 3.31 7.08, 2.95 7.37 C2.59 7.67, 2.51 7.45, 2 7.05 C1.49 6.65, 0.3 5.61, -0.1 5 C-0.51 4.38, -0.6 4.08, -0.44 3.38 C-0.28 2.68, 0.45 1.45, 0.86 0.81 C1.27 0.17, 1.79 -0.25, 2.03 -0.46 C2.27 -0.66, 2.14 -0.59, 2.28 -0.4" stroke="none" stroke-width="0" fill="#1e1e1e"></path><path d="M2.72 -0.29 C3.2 -0.27, 3.41 0.76, 3.79 1.31 C4.16 1.86, 4.83 2.3, 4.97 3.03 C5.12 3.75, 4.99 5.01, 4.68 5.68 C4.36 6.34, 3.65 6.81, 3.08 7.01 C2.51 7.2, 1.7 7.17, 1.25 6.86 C0.8 6.54, 0.59 5.77, 0.38 5.12 C0.17 4.48, -0.15 3.7, -0.03 3 C0.09 2.3, 0.71 1.43, 1.1 0.94 C1.49 0.45, 2 0.27, 2.32 0.08 C2.63 -0.11, 2.9 -0.18, 2.99 -0.18 M2.95 0.3 C3.46 0.26, 3.6 0.7, 3.96 1.14 C4.33 1.57, 5.12 2.17, 5.16 2.91 C5.2 3.65, 4.53 4.98, 4.21 5.58 C3.89 6.18, 3.74 6.31, 3.23 6.52 C2.72 6.74, 1.63 7.11, 1.16 6.88 C0.7 6.66, 0.62 5.81, 0.43 5.17 C0.25 4.53, -0.09 3.86, 0.06 3.05 C0.2 2.24, 0.96 0.81, 1.32 0.3 C1.67 -0.2, 1.91 0.14, 2.17 0.04 C2.44 -0.06, 2.9 -0.33, 2.89 -0.28" stroke="#1e1e1e" stroke-width="2" fill="none"></path></g><g stroke-linecap="round" transform="translate(712.6998401040087 251.80937100966315) rotate(539.411163799417 18.84836065573768 36.5)"><path d="M9.42 0 C14.93 0.45, 21.42 -1.12, 28.27 0 C32.15 1.67, 40.4 5.26, 37.7 9.42 C38.58 32.42, 36.02 52.59, 37.7 63.58 C38.57 67.57, 34.83 70.38, 28.27 73 C23.63 71.4, 17.77 75.07, 9.42 73 C2.9 71.51, 1.51 72.24, 0 63.58 C0.33 53.28, -1.04 40.65, 0 9.42 C2.39 5.53, 2.79 -1.51, 9.42 0" stroke="none" stroke-width="0" fill="#ffc9c9"></path><path d="M9.42 0 C16.33 0.51, 22.54 0.42, 28.27 0 M9.42 0 C14.18 0.97, 16.77 0.4, 28.27 0 M28.27 0 C33.46 -0.82, 38.55 4.83, 37.7 9.42 M28.27 0 C32.36 1.21, 35.81 2.62, 37.7 9.42 M37.7 9.42 C37.65 31.5, 38.41 49.57, 37.7 63.58 M37.7 9.42 C36.47 22.5, 37.31 34.46, 37.7 63.58 M37.7 63.58 C37.11 69.7, 33.67 72.36, 28.27 73 M37.7 63.58 C37.15 69.99, 36.31 72.47, 28.27 73 M28.27 73 C22.85 72.62, 18.89 74.11, 9.42 73 M28.27 73 C24.63 72.27, 20.57 72.97, 9.42 73 M9.42 73 C1.88 72.69, -0.5 69.07, 0 63.58 M9.42 73 C4.7 74.71, -0.44 68.48, 0 63.58 M0 63.58 C0.99 49.29, 1.47 32.4, 0 9.42 M0 63.58 C0.39 46.99, -0.32 28.81, 0 9.42 M0 9.42 C0.59 1.7, 3.6 -1.61, 9.42 0 M0 9.42 C1.39 1.04, 3.01 -1.44, 9.42 0" stroke="#1e1e1e" stroke-width="2" fill="none"></path></g><g stroke-linecap="round" transform="translate(715.6493091036771 280.66926342892674) rotate(539.411163799417 2.393442622950829 3.590163934426215)"><path d="M2.46 -0.04 C2.92 0.02, 3.76 0.6, 4.17 1.19 C4.59 1.78, 4.89 2.78, 4.96 3.52 C5.03 4.25, 4.9 5.02, 4.58 5.58 C4.25 6.14, 3.62 6.66, 3.03 6.86 C2.44 7.07, 1.45 7.16, 1.03 6.81 C0.61 6.47, 0.65 5.49, 0.51 4.8 C0.37 4.11, 0.14 3.36, 0.2 2.67 C0.25 1.98, 0.46 1.08, 0.83 0.67 C1.2 0.27, 2.17 0.33, 2.43 0.23 C2.7 0.13, 2.42 0.08, 2.43 0.09 M2.59 0.25 C3.1 0.19, 3.46 0.11, 3.86 0.67 C4.26 1.23, 4.87 2.7, 5 3.58 C5.14 4.47, 5.05 5.4, 4.67 5.97 C4.3 6.53, 3.24 6.76, 2.73 6.98 C2.23 7.19, 2.07 7.49, 1.64 7.24 C1.2 7, 0.34 6.32, 0.1 5.52 C-0.14 4.71, 0.04 3.28, 0.19 2.41 C0.34 1.55, 0.69 0.77, 1.02 0.33 C1.35 -0.12, 1.95 -0.23, 2.17 -0.29 C2.38 -0.34, 2.28 -0.04, 2.31 0.01" stroke="none" stroke-width="0" fill="#1e1e1e"></path><path d="M2.38 0.29 C2.97 0.19, 3.89 0.27, 4.31 0.71 C4.72 1.14, 4.89 2.06, 4.89 2.88 C4.88 3.69, 4.54 4.97, 4.3 5.61 C4.06 6.24, 3.87 6.5, 3.44 6.68 C3 6.85, 2.23 6.84, 1.69 6.66 C1.16 6.47, 0.48 6.21, 0.22 5.56 C-0.05 4.92, -0.03 3.54, 0.08 2.79 C0.19 2.03, 0.47 1.54, 0.89 1.06 C1.31 0.57, 2.37 0.08, 2.61 -0.11 C2.85 -0.31, 2.35 -0.14, 2.33 -0.11 M2.34 -0.04 C2.8 -0.03, 3.39 0.24, 3.78 0.77 C4.16 1.3, 4.48 2.36, 4.65 3.13 C4.82 3.9, 5.14 4.79, 4.8 5.39 C4.47 5.99, 3.19 6.54, 2.64 6.73 C2.08 6.91, 1.87 6.81, 1.47 6.49 C1.06 6.16, 0.36 5.49, 0.18 4.8 C-0.01 4.11, 0.23 3.09, 0.35 2.35 C0.47 1.61, 0.55 0.78, 0.92 0.33 C1.29 -0.11, 2.33 -0.27, 2.59 -0.3 C2.85 -0.33, 2.54 0.04, 2.47 0.14" stroke="#1e1e1e" stroke-width="2" fill="none"></path></g><g stroke-linecap="round" transform="translate(675.6034385845162 252.19062899033685) rotate(539.411163799417 18.84836065573768 36.5)"><path d="M9.42 0 C12.95 1.7, 23.56 2.13, 28.27 0 C37.27 -2.34, 37.24 4.66, 37.7 9.42 C38.28 27.39, 37.69 47.31, 37.7 63.58 C34.89 67.75, 32.82 72.51, 28.27 73 C23.19 71.82, 19.98 75.47, 9.42 73 C0.06 75.02, -1.95 70.73, 0 63.58 C2.53 47.75, -0.22 25.64, 0 9.42 C2.64 4.28, 0.02 -0.14, 9.42 0" stroke="none" stroke-width="0" fill="#ffc9c9"></path><path d="M9.42 0 C13.75 1.21, 21.07 1.58, 28.27 0 M9.42 0 C16.42 -0.46, 24.84 0.73, 28.27 0 M28.27 0 C32.65 1.05, 36.06 2.69, 37.7 9.42 M28.27 0 C36.33 0.23, 37.06 3.03, 37.7 9.42 M37.7 9.42 C36.62 29.03, 37.76 49.01, 37.7 63.58 M37.7 9.42 C37.36 26.83, 37.21 44.07, 37.7 63.58 M37.7 63.58 C37.22 69.97, 36.08 72.54, 28.27 73 M37.7 63.58 C35.45 68.56, 34.44 71.03, 28.27 73 M28.27 73 C21.17 73.08, 16.11 73.51, 9.42 73 M28.27 73 C23.17 72.88, 19.03 72.66, 9.42 73 M9.42 73 C4.5 74.49, -0.38 68.66, 0 63.58 M9.42 73 C2.68 73.31, 0.5 71.08, 0 63.58 M0 63.58 C0.06 43.65, -2.21 26.4, 0 9.42 M0 63.58 C0.66 41.51, 0.59 20.09, 0 9.42 M0 9.42 C1.2 1.32, 3.02 -1.25, 9.42 0 M0 9.42 C-0.58 4.08, 1.77 0.22, 9.42 0" stroke="#1e1e1e" stroke-width="2" fill="none"></path></g><g stroke-linecap="round" transform="translate(705.4777151386552 280.7738019074971) rotate(539.411163799417 2.393442622950829 3.590163934426215)"><path d="M2.49 0.15 C3.01 0.04, 3.74 0.21, 4.13 0.62 C4.51 1.04, 4.8 1.85, 4.81 2.63 C4.83 3.41, 4.41 4.61, 4.21 5.29 C4 5.97, 4.01 6.4, 3.6 6.7 C3.19 7, 2.33 7.29, 1.75 7.1 C1.17 6.91, 0.45 6.2, 0.12 5.56 C-0.21 4.93, -0.31 4.06, -0.25 3.29 C-0.18 2.51, 0.09 1.46, 0.49 0.9 C0.89 0.34, 1.8 0.09, 2.14 -0.08 C2.48 -0.25, 2.48 -0.2, 2.52 -0.13 M2.82 0.39 C3.39 0.52, 4.1 0.94, 4.37 1.41 C4.64 1.88, 4.42 2.42, 4.45 3.19 C4.49 3.95, 4.84 5.3, 4.58 6 C4.31 6.7, 3.39 7.31, 2.89 7.4 C2.38 7.49, 1.95 6.98, 1.52 6.54 C1.08 6.1, 0.58 5.46, 0.27 4.77 C-0.04 4.08, -0.4 3.09, -0.31 2.39 C-0.23 1.7, 0.32 1.05, 0.77 0.6 C1.21 0.15, 2.02 -0.21, 2.37 -0.3 C2.73 -0.4, 2.91 -0.1, 2.91 0.05" stroke="none" stroke-width="0" fill="#1e1e1e"></path><path d="M2.86 -0.15 C3.27 -0.03, 3.67 0.79, 4.04 1.34 C4.41 1.89, 5 2.46, 5.07 3.16 C5.14 3.86, 4.83 4.84, 4.45 5.54 C4.07 6.24, 3.33 7.17, 2.81 7.36 C2.28 7.55, 1.74 7.02, 1.3 6.66 C0.85 6.3, 0.33 5.92, 0.16 5.2 C-0.02 4.48, 0.1 3.16, 0.23 2.35 C0.36 1.54, 0.5 0.79, 0.92 0.35 C1.34 -0.08, 2.43 -0.22, 2.76 -0.26 C3.09 -0.3, 2.94 0.01, 2.9 0.1 M2.24 0.03 C2.83 -0.02, 3.95 0.26, 4.29 0.7 C4.62 1.13, 4.23 1.93, 4.26 2.64 C4.28 3.34, 4.64 4.28, 4.46 4.92 C4.27 5.56, 3.57 6.22, 3.14 6.48 C2.72 6.74, 2.37 6.74, 1.9 6.5 C1.43 6.25, 0.62 5.64, 0.33 5.01 C0.03 4.37, 0.06 3.39, 0.14 2.71 C0.22 2.03, 0.5 1.4, 0.82 0.94 C1.14 0.47, 1.81 0.1, 2.05 -0.08 C2.28 -0.25, 2.13 -0.26, 2.24 -0.12" stroke="#1e1e1e" stroke-width="2" fill="none"></path></g><g stroke-linecap="round" transform="translate(461.34226833459957 388.54820075974646) rotate(629.4111637994168 18.84836065573768 36.5)"><path d="M9.42 0 C13.26 2.22, 21.02 0.15, 28.27 0 C34.01 0.85, 37.49 4.7, 37.7 9.42 C37.8 27.04, 40.23 48.85, 37.7 63.58 C38.68 66.71, 33.96 76.35, 28.27 73 C22.54 71.36, 20.27 73.91, 9.42 73 C2.26 70.22, -3.5 67.12, 0 63.58 C-3.06 49.53, -2.17 26.51, 0 9.42 C-0.89 0.21, 5.44 2.87, 9.42 0" stroke="none" stroke-width="0" fill="#ffc9c9"></path><path d="M9.42 0 C14.08 -1.5, 18.31 -0.18, 28.27 0 M9.42 0 C14.3 -0.59, 18.76 0.15, 28.27 0 M28.27 0 C34.05 -1.45, 36.25 2.27, 37.7 9.42 M28.27 0 C34.68 -0.99, 37.38 1.06, 37.7 9.42 M37.7 9.42 C35.95 25.49, 35.86 40.86, 37.7 63.58 M37.7 9.42 C38.59 26.41, 39.1 44.35, 37.7 63.58 M37.7 63.58 C36.56 70.64, 33.1 71.98, 28.27 73 M37.7 63.58 C37.05 71.19, 35.83 73.18, 28.27 73 M28.27 73 C23.36 71.69, 16.58 73.98, 9.42 73 M28.27 73 C21.11 72.76, 15.41 72.02, 9.42 73 M9.42 73 C3.54 73.62, 0.24 70.81, 0 63.58 M9.42 73 C3.24 70.85, 1.35 69.38, 0 63.58 M0 63.58 C0.95 45.61, 0.62 32.9, 0 9.42 M0 63.58 C0.11 43.06, 0.34 21.31, 0 9.42 M0 9.42 C1.4 1.81, 3.67 -0.49, 9.42 0 M0 9.42 C-1.03 1.82, 2.8 2.29, 9.42 0" stroke="#1e1e1e" stroke-width="2" fill="none"></path></g><g stroke-linecap="round" transform="translate(481.8471300136961 407.95258779220177) rotate(629.4111637994168 2.393442622950829 3.590163934426215)"><path d="M2.34 0 C2.86 -0.09, 3.38 0.32, 3.8 0.77 C4.22 1.22, 4.75 1.87, 4.87 2.69 C4.99 3.51, 4.75 4.99, 4.52 5.69 C4.3 6.38, 4.05 6.66, 3.52 6.86 C2.99 7.07, 1.85 7.17, 1.37 6.93 C0.89 6.69, 0.82 6.04, 0.64 5.42 C0.47 4.79, 0.29 3.93, 0.29 3.18 C0.29 2.42, 0.3 1.46, 0.65 0.91 C0.99 0.36, 2.11 0, 2.39 -0.15 C2.67 -0.29, 2.26 -0.09, 2.33 0.03 M2.83 -0.29 C3.32 -0.24, 3.69 0.31, 4.04 0.87 C4.38 1.44, 4.79 2.25, 4.89 3.1 C4.98 3.95, 4.88 5.36, 4.63 5.97 C4.38 6.58, 3.93 6.69, 3.39 6.76 C2.85 6.84, 1.89 6.74, 1.41 6.42 C0.94 6.11, 0.75 5.54, 0.54 4.86 C0.34 4.19, 0.14 2.98, 0.19 2.37 C0.25 1.76, 0.49 1.68, 0.86 1.2 C1.22 0.73, 2.11 -0.28, 2.37 -0.48 C2.62 -0.68, 2.39 -0.21, 2.37 -0.01" stroke="none" stroke-width="0" fill="#1e1e1e"></path><path d="M2.53 0.18 C3.03 0.12, 3.37 0.6, 3.75 1.05 C4.13 1.5, 4.75 2.2, 4.83 2.88 C4.91 3.56, 4.52 4.46, 4.23 5.14 C3.93 5.82, 3.54 6.68, 3.07 6.98 C2.61 7.28, 1.94 7.18, 1.44 6.92 C0.93 6.66, 0.24 6.12, 0.02 5.42 C-0.2 4.72, 0.01 3.5, 0.1 2.72 C0.19 1.94, 0.21 1.25, 0.54 0.74 C0.88 0.23, 1.77 -0.26, 2.1 -0.33 C2.44 -0.39, 2.56 0.23, 2.56 0.37 M1.76 0.24 C2.09 0.11, 2.82 -0.14, 3.28 0.28 C3.74 0.69, 4.25 1.96, 4.52 2.74 C4.79 3.52, 5.09 4.22, 4.9 4.95 C4.7 5.67, 3.89 6.7, 3.37 7.07 C2.84 7.43, 2.26 7.42, 1.73 7.13 C1.2 6.85, 0.43 5.94, 0.19 5.38 C-0.05 4.83, 0.25 4.56, 0.28 3.79 C0.31 3.02, 0.11 1.38, 0.37 0.75 C0.63 0.12, 1.5 0.18, 1.84 0 C2.18 -0.18, 2.36 -0.41, 2.41 -0.32" stroke="#1e1e1e" stroke-width="2" fill="none"></path></g><g stroke-linecap="round" transform="translate(460.9610103539251 351.45179924025354) rotate(629.4111637994168 18.84836065573768 36.5)"><path d="M9.42 0 C15.81 0.79, 23.02 1.45, 28.27 0 C37.76 2.02, 35.87 2.7, 37.7 9.42 C39.22 17.32, 37.64 34.86, 37.7 63.58 C36.71 66.36, 33.61 72.37, 28.27 73 C22.65 70.48, 15.39 70.52, 9.42 73 C3.47 71.18, -3.18 66.3, 0 63.58 C-0.17 40.36, 3.02 25.87, 0 9.42 C1.09 1.07, 2.97 -1.22, 9.42 0" stroke="none" stroke-width="0" fill="#ffc9c9"></path><path d="M9.42 0 C12.45 1.51, 18.87 1.01, 28.27 0 M9.42 0 C13.82 -0.73, 18.01 -0.46, 28.27 0 M28.27 0 C34.66 -0.86, 37.42 1.33, 37.7 9.42 M28.27 0 C34.75 0.44, 35.98 1.01, 37.7 9.42 M37.7 9.42 C37.77 25.7, 35.22 39.3, 37.7 63.58 M37.7 9.42 C37.63 21.25, 37.47 31.79, 37.7 63.58 M37.7 63.58 C37.13 71.01, 35.66 73.16, 28.27 73 M37.7 63.58 C36.92 71.34, 33.71 73.12, 28.27 73 M28.27 73 C24.98 72.23, 17.71 72.34, 9.42 73 M28.27 73 C22.95 73.13, 17.36 73.29, 9.42 73 M9.42 73 C3.23 71.13, 1.17 69.44, 0 63.58 M9.42 73 C3.11 71.98, -0.63 70.68, 0 63.58 M0 63.58 C1.84 51.52, -1.25 40.63, 0 9.42 M0 63.58 C0.61 41.26, 0.17 20.04, 0 9.42 M0 9.42 C-0.89 1.99, 2.84 1.99, 9.42 0 M0 9.42 C1.38 3.77, 3.18 -2, 9.42 0" stroke="#1e1e1e" stroke-width="2" fill="none"></path></g><g stroke-linecap="round" transform="translate(481.74259153512594 397.7809938271798) rotate(629.4111637994168 2.393442622950829 3.5901639344262435)"><path d="M2.51 -0.3 C3.03 -0.28, 3.56 0.59, 3.99 1.12 C4.42 1.64, 5.03 2.14, 5.07 2.85 C5.12 3.56, 4.53 4.66, 4.28 5.36 C4.02 6.05, 3.96 6.71, 3.55 7.02 C3.14 7.32, 2.41 7.46, 1.83 7.2 C1.26 6.94, 0.41 6.21, 0.1 5.48 C-0.21 4.75, -0.14 3.61, -0.05 2.83 C0.05 2.04, 0.19 1.23, 0.66 0.8 C1.13 0.36, 2.45 0.32, 2.77 0.2 C3.09 0.08, 2.68 0.02, 2.58 0.08 M2.28 -0.01 C2.79 -0.04, 3.51 0.68, 3.96 1.07 C4.41 1.47, 4.89 1.78, 4.98 2.37 C5.07 2.96, 4.72 3.91, 4.51 4.59 C4.3 5.27, 4.13 6.11, 3.7 6.45 C3.27 6.79, 2.49 6.68, 1.93 6.63 C1.38 6.58, 0.71 6.78, 0.36 6.14 C0.02 5.51, -0.16 3.69, -0.13 2.83 C-0.1 1.97, 0.21 1.4, 0.55 0.99 C0.9 0.58, 1.64 0.52, 1.93 0.35 C2.22 0.18, 2.33 0.04, 2.31 -0.03" stroke="none" stroke-width="0" fill="#1e1e1e"></path><path d="M2.69 -0.07 C3.17 -0.13, 3.52 0.26, 3.85 0.82 C4.17 1.38, 4.57 2.5, 4.63 3.3 C4.69 4.1, 4.53 4.98, 4.21 5.61 C3.89 6.24, 3.17 6.92, 2.71 7.09 C2.24 7.25, 1.91 6.94, 1.44 6.59 C0.97 6.24, 0.19 5.7, -0.09 4.99 C-0.37 4.28, -0.44 3, -0.24 2.33 C-0.04 1.65, 0.69 1.3, 1.13 0.94 C1.56 0.58, 2.13 0.25, 2.35 0.17 C2.57 0.08, 2.44 0.42, 2.44 0.42 M2.41 0.3 C3 0.35, 3.96 0.5, 4.33 1.04 C4.69 1.57, 4.62 2.76, 4.6 3.52 C4.58 4.28, 4.51 5.1, 4.2 5.61 C3.89 6.12, 3.15 6.34, 2.73 6.6 C2.32 6.86, 2.16 7.49, 1.71 7.17 C1.26 6.86, 0.32 5.46, 0.01 4.72 C-0.29 3.97, -0.36 3.44, -0.13 2.7 C0.09 1.96, 0.88 0.69, 1.34 0.27 C1.81 -0.16, 2.44 0.15, 2.65 0.16 C2.86 0.17, 2.62 0.36, 2.61 0.32" stroke="#1e1e1e" stroke-width="2" fill="none"></path></g><g stroke-linecap="round" transform="translate(680 140) rotate(0 35.5 35.5)"><path d="M23.83 1.13 C30.24 -1.49, 40.65 -1.42, 47.22 0.78 C53.79 2.98, 59.12 8.39, 63.24 14.34 C67.37 20.29, 71.88 29.36, 71.99 36.47 C72.1 43.58, 68.13 51.65, 63.93 57.02 C59.73 62.38, 53.53 66.57, 46.8 68.66 C40.07 70.75, 30.08 71.69, 23.55 69.53 C17.02 67.38, 11.43 61.5, 7.61 55.72 C3.8 49.93, 0.95 41.66, 0.66 34.82 C0.37 27.99, 1.42 20.33, 5.89 14.7 C10.35 9.07, 23.26 3.36, 27.45 1.05 C31.64 -1.25, 30.81 0.31, 31.03 0.89 M37.12 -0.37 C43.59 -0.59, 50.83 3.96, 56.13 8.09 C61.43 12.23, 66.74 17.63, 68.89 24.45 C71.05 31.28, 71.44 42.22, 69.05 49.06 C66.65 55.91, 60.32 61.66, 54.53 65.54 C48.75 69.42, 41.12 72.58, 34.36 72.34 C27.61 72.11, 19.36 68.52, 14.01 64.13 C8.65 59.73, 4.32 52.81, 2.22 45.98 C0.13 39.16, -0.83 29.86, 1.44 23.17 C3.72 16.48, 10.11 9.76, 15.87 5.85 C21.63 1.93, 32.67 0.51, 36.02 -0.32 C39.37 -1.16, 35.81 0.08, 35.97 0.82" stroke="#1e1e1e" stroke-width="2" fill="none"></path></g><g transform="translate(669 214) rotate(0 51 12.5)"><text x="0" y="17.52" font-family="Virgil, Segoe UI Emoji" font-size="20px" fill="#1e1e1e" text-anchor="start" style="white-space: pre;" direction="ltr" dominant-baseline="alphabetic">Bouncer C</text></g><g stroke-linecap="round" transform="translate(335 373) rotate(0 35.5 35.5)"><path d="M24.53 2.24 C30.82 -0.53, 39.43 -0.63, 45.98 1.46 C52.52 3.56, 59.75 9.1, 63.79 14.79 C67.83 20.47, 69.98 28.89, 70.21 35.58 C70.44 42.26, 69 49.3, 65.18 54.9 C61.36 60.5, 53.85 66.86, 47.28 69.17 C40.7 71.49, 32.31 70.88, 25.72 68.8 C19.13 66.72, 11.98 62.17, 7.73 56.71 C3.48 51.25, 0.32 43, 0.21 36.02 C0.1 29.05, 2.8 20.52, 7.06 14.83 C11.32 9.15, 21.9 4.02, 25.75 1.92 C29.59 -0.18, 29.7 1.87, 30.13 2.22 M47.27 2.58 C53.75 4.39, 60.22 10.04, 63.95 15.76 C67.68 21.47, 69.45 29.9, 69.63 36.87 C69.8 43.84, 68.74 52.34, 65 57.6 C61.26 62.85, 53.91 66.51, 47.18 68.38 C40.45 70.26, 31.18 70.66, 24.62 68.85 C18.07 67.04, 11.75 62.96, 7.85 57.5 C3.95 52.04, 1.58 43.41, 1.21 36.08 C0.84 28.75, 1.74 19.33, 5.64 13.53 C9.54 7.73, 17.8 3.35, 24.61 1.28 C31.42 -0.79, 43.07 1.1, 46.51 1.09 C49.95 1.08, 45.19 0.67, 45.27 1.22" stroke="none" stroke-width="0" fill="#b2f2bb"></path><path d="M39.48 1.17 C46.06 1.61, 53.73 5.27, 58.85 9.94 C63.97 14.6, 68.68 22.47, 70.19 29.16 C71.7 35.85, 70.81 43.79, 67.93 50.1 C65.05 56.4, 58.91 63.53, 52.93 66.99 C46.95 70.45, 39.06 71.78, 32.07 70.85 C25.07 69.93, 16.18 66.16, 10.98 61.42 C5.77 56.68, 2.27 49.01, 0.83 42.4 C-0.61 35.78, -0.54 27.9, 2.32 21.75 C5.18 15.6, 11.09 8.98, 17.98 5.5 C24.87 2.03, 38.73 1.39, 43.65 0.9 C48.58 0.42, 47.71 1.93, 47.53 2.6 M23.03 1.42 C28.72 -1.63, 35.72 -1.04, 42.39 0.58 C49.06 2.2, 58.34 5.85, 63.05 11.15 C67.77 16.45, 70.2 24.96, 70.66 32.36 C71.11 39.75, 69.54 49.52, 65.79 55.52 C62.03 61.53, 54.58 65.96, 48.13 68.38 C41.68 70.8, 33.74 71.54, 27.11 70.05 C20.47 68.56, 13.04 64.72, 8.32 59.46 C3.59 54.2, -0.69 45.46, -1.24 38.49 C-1.8 31.52, 1.06 23.39, 4.96 17.62 C8.87 11.85, 19.11 6.07, 22.2 3.86 C25.28 1.65, 23.14 4.02, 23.46 4.35" stroke="#2f9e44" stroke-width="2" fill="none"></path></g><g transform="translate(324 447) rotate(0 51 12.5)"><text x="0" y="17.52" font-family="Virgil, Segoe UI Emoji" font-size="20px" fill="#2f9e44" text-anchor="start" style="white-space: pre;" direction="ltr" dominant-baseline="alphabetic">Bouncer D</text></g><g stroke-linecap="round" transform="translate(1159 340.5) rotate(0 92 115.5)"><path d="M32 0 C79.06 0.76, 125.53 1.49, 152 0 M32 0 C57.1 0.63, 83.18 0.5, 152 0 M152 0 C174.61 1.53, 185.84 11.06, 184 32 M152 0 C174.35 -0.72, 181.9 10.77, 184 32 M184 32 C181.95 84.27, 184.38 140.3, 184 199 M184 32 C182.66 71.31, 181.91 109.42, 184 199 M184 199 C183.9 222.02, 172.66 231.39, 152 231 M184 199 C183.71 218.35, 172.2 228.91, 152 231 M152 231 C117.29 230.31, 80.7 230.16, 32 231 M152 231 C117.16 229.26, 82.49 230.94, 32 231 M32 231 C11.17 231.2, -0.28 219.06, 0 199 M32 231 C12.65 232.53, 1.98 222.33, 0 199 M0 199 C0.58 149.92, 0.92 101.5, 0 32 M0 199 C0.42 160.77, 1.07 120.4, 0 32 M0 32 C-0.25 10.18, 10.53 0.7, 32 0 M0 32 C-2.02 12.08, 11.62 1.65, 32 0" stroke="#1e1e1e" stroke-width="2" fill="none"></path></g><g transform="translate(1183 363.5) rotate(0 72.32499694824219 12.5)"><text x="0" y="17.52" font-family="Virgil, Segoe UI Emoji" font-size="20px" fill="#1e1e1e" text-anchor="start" style="white-space: pre;" direction="ltr" dominant-baseline="alphabetic">Denied persons</text></g><g stroke-linecap="round" transform="translate(24 375.5) rotate(0 40.5 39)"><path d="M23.73 2.66 C29.83 -0.62, 39.13 -1.49, 46.42 -0.34 C53.7 0.8, 61.87 4.8, 67.45 9.54 C73.02 14.28, 77.8 21.33, 79.87 28.1 C81.94 34.86, 81.87 43.5, 79.87 50.13 C77.86 56.76, 73.25 63.42, 67.84 67.87 C62.43 72.32, 54.71 75.76, 47.4 76.81 C40.09 77.86, 30.93 77.08, 23.98 74.18 C17.03 71.28, 9.53 65.36, 5.7 59.42 C1.86 53.48, 0.97 45.4, 0.96 38.53 C0.96 31.66, 1.29 24.09, 5.64 18.19 C9.99 12.29, 23.17 5.64, 27.07 3.13 C30.97 0.62, 28.95 2.66, 29.02 3.12 M31.74 1.27 C38.42 -0.52, 47.45 0.78, 54.1 3.14 C60.75 5.5, 67.14 9.92, 71.63 15.44 C76.13 20.96, 80.31 29.38, 81.08 36.24 C81.85 43.11, 79.73 50.74, 76.28 56.64 C72.82 62.55, 66.87 68.15, 60.35 71.7 C53.82 75.25, 44.19 77.92, 37.12 77.94 C30.05 77.96, 23.75 76.23, 17.93 71.84 C12.11 67.45, 4.91 58.37, 2.22 51.63 C-0.46 44.89, 0.46 38.22, 1.83 31.42 C3.2 24.61, 5.27 15.62, 10.43 10.78 C15.6 5.95, 29.35 4.07, 32.79 2.43 C36.24 0.79, 31.22 0.66, 31.11 0.95" stroke="none" stroke-width="0" fill="#ffc9c9"></path><path d="M58.98 3.64 C65.46 5.93, 71.51 12.5, 75.05 18.69 C78.59 24.88, 80.25 33.58, 80.2 40.79 C80.14 47.99, 78.68 56.18, 74.72 61.91 C70.76 67.64, 63.25 72.58, 56.44 75.18 C49.63 77.79, 41.05 78.95, 33.87 77.54 C26.68 76.13, 18.88 71.64, 13.33 66.74 C7.78 61.83, 2.53 54.7, 0.58 48.14 C-1.37 41.57, -0.85 33.89, 1.64 27.35 C4.14 20.81, 9.93 13.53, 15.56 8.9 C21.18 4.27, 27.06 -0.08, 35.38 -0.41 C43.7 -0.73, 59.66 4.63, 65.48 6.96 C71.29 9.29, 70.87 13.08, 70.27 13.58 M58.02 3.96 C64.71 6.15, 71.37 11.29, 75.41 17.26 C79.44 23.22, 82.35 32.37, 82.25 39.75 C82.15 47.13, 78.89 55.55, 74.81 61.53 C70.74 67.52, 64.59 73.06, 57.79 75.66 C50.98 78.25, 41.53 78.28, 33.98 77.11 C26.42 75.93, 17.68 73.33, 12.47 68.59 C7.25 63.86, 4.56 55.59, 2.7 48.71 C0.84 41.82, -0.62 34, 1.32 27.31 C3.25 20.62, 8.87 13.28, 14.3 8.56 C19.74 3.84, 26.75 -0.01, 33.93 -1 C41.11 -1.99, 53.47 1.72, 57.38 2.62 C61.28 3.53, 57.77 3.56, 57.35 4.42" stroke="#e03131" stroke-width="2" fill="none"></path></g><g transform="translate(10 458.5) rotate(0 68.57999999999998 13.5)"><text x="0" y="18.921599999999994" font-family="Virgil, Segoe UI Emoji" font-size="21.599999999999994px" fill="#e03131" text-anchor="start" style="white-space: pre;" direction="ltr" dominant-baseline="alphabetic">Evil dancer</text></g><g stroke-linecap="round"><g transform="translate(232 378.5) rotate(0 35.19694666671569 38.89644688032567)"><path d="M-0.17 -1.03 C11.82 12.07, 60.24 65.77, 72.11 78.83 M-1.71 1.04 C10.2 13.8, 59.73 64.27, 71.74 77.14" stroke="#e03131" stroke-width="2" fill="none"></path></g></g><mask></mask><g stroke-linecap="round"><g transform="translate(300 376.5) rotate(0 -32.07692934555001 39.21597689029761)"><path d="M0.01 1.15 C-10.65 14.29, -52.73 64.99, -63.48 77.72 M-1.45 0.71 C-12.26 13.6, -53.48 63.52, -64.16 75.97" stroke="#e03131" stroke-width="2" fill="none"></path></g></g><mask></mask><g stroke-linecap="round"><g transform="translate(85.99999999986835 501.4936883958974) rotate(0 294.1313230000536 163.6967529877873)"><path d="M0.24 -0.95 C47.86 53.38, 187.71 297.12, 285.9 325.08 C384.08 353.03, 538.87 192.99, 589.35 166.78 M-1.09 1.17 C46.3 55.27, 186.33 295.73, 284.68 323.5 C383.04 351.26, 538.28 193.49, 589.03 167.76" stroke="#e03131" stroke-width="2" fill="none"></path></g><g transform="translate(85.99999999986835 501.4936883958974) rotate(0 294.1313230000536 163.6967529877873)"><path d="M574.99 188.44 C578.06 180.96, 585.85 176.62, 589.03 167.76 M574.99 188.44 C578 183.12, 582.55 177.4, 589.03 167.76" stroke="#e03131" stroke-width="2" fill="none"></path></g><g transform="translate(85.99999999986835 501.4936883958974) rotate(0 294.1313230000536 163.6967529877873)"><path d="M564.98 174.58 C571.13 171.5, 582.12 171.59, 589.03 167.76 M564.98 174.58 C570.48 172.63, 577.48 170.31, 589.03 167.76" stroke="#e03131" stroke-width="2" fill="none"></path></g></g><mask></mask><g stroke-linecap="round" transform="translate(804 10) rotate(0 92 115.5)"><path d="M32 0 C79.49 -1.52, 124.47 1.72, 152 0 M32 0 C64.36 -1.67, 97.51 -1.43, 152 0 M152 0 C172.28 -0.78, 185.19 8.77, 184 32 M152 0 C173.61 -0.6, 186.06 9.71, 184 32 M184 32 C185.13 88.24, 183.77 144.54, 184 199 M184 32 C182.89 69.9, 184.07 105.27, 184 199 M184 199 C184.22 221.2, 171.35 229.01, 152 231 M184 199 C182.49 220.19, 173.41 229.2, 152 231 M152 231 C108.25 230.42, 68.09 229.57, 32 231 M152 231 C109.03 231.26, 65.44 232.06, 32 231 M32 231 C9.79 232.9, -0.01 219.92, 0 199 M32 231 C12.7 231.41, -0.3 220.36, 0 199 M0 199 C1.17 148.95, 2.76 94.19, 0 32 M0 199 C-0.1 138.9, 1.85 77.26, 0 32 M0 32 C0.76 9.93, 12.63 -1.93, 32 0 M0 32 C-1.7 11.84, 8.88 1.66, 32 0" stroke="#1e1e1e" stroke-width="2" fill="none"></path></g><g transform="translate(828 33) rotate(0 72.32499694824219 12.5)"><text x="0" y="17.52" font-family="Virgil, Segoe UI Emoji" font-size="20px" fill="#1e1e1e" text-anchor="start" style="white-space: pre;" direction="ltr" dominant-baseline="alphabetic">Denied persons</text></g><g stroke-linecap="round" transform="translate(245 113) rotate(0 92 115.5)"><path d="M32 0 C69.99 -0.19, 110.14 1.19, 152 0 M32 0 C62.27 0.28, 94.28 0.55, 152 0 M152 0 C171.94 0.43, 184.95 8.9, 184 32 M152 0 C175.19 -0.29, 182.97 12.79, 184 32 M184 32 C183.6 97.89, 184.58 159.58, 184 199 M184 32 C185.19 78.48, 185.38 122.94, 184 199 M184 199 C184.85 219.12, 172.98 230.99, 152 231 M184 199 C183.96 221.53, 174.67 232.37, 152 231 M152 231 C108.08 229.65, 61.67 230.46, 32 231 M152 231 C120.06 229.7, 85.86 230.69, 32 231 M32 231 C12.51 232.45, 1.95 220.27, 0 199 M32 231 C11.23 229.98, -0.77 222.54, 0 199 M0 199 C-2.11 161.53, -0.16 126.62, 0 32 M0 199 C1.02 151.7, 0.5 103, 0 32 M0 32 C-1.18 11.33, 9.24 0.3, 32 0 M0 32 C-0.09 9.07, 9.47 1.78, 32 0" stroke="#1e1e1e" stroke-width="2" fill="none"></path></g><g transform="translate(269 136) rotate(0 72.32499694824219 12.5)"><text x="0" y="17.52" font-family="Virgil, Segoe UI Emoji" font-size="20px" fill="#1e1e1e" text-anchor="start" style="white-space: pre;" direction="ltr" dominant-baseline="alphabetic">Denied persons</text></g><g stroke-linecap="round" transform="translate(796 565) rotate(0 92 115.5)"><path d="M32 0 C78.9 -2.26, 124.83 -1.98, 152 0 M32 0 C56.33 -1.67, 82.5 -0.38, 152 0 M152 0 C173.27 -0.63, 184.54 11.05, 184 32 M152 0 C172.02 2.17, 185.71 9.64, 184 32 M184 32 C181.05 80.91, 182.49 134.09, 184 199 M184 32 C182.36 80.93, 182.05 129.74, 184 199 M184 199 C182.24 219.06, 171.86 231.54, 152 231 M184 199 C182.65 221.43, 172.37 229.89, 152 231 M152 231 C125.42 228.99, 97.79 231.06, 32 231 M152 231 C122.79 231.58, 95.38 231.47, 32 231 M32 231 C10.48 230.49, -0.19 220.27, 0 199 M32 231 C8.95 230.75, 0.77 219.92, 0 199 M0 199 C0.29 166.18, 2.71 130.44, 0 32 M0 199 C2.07 135.43, 2.03 73.05, 0 32 M0 32 C1.21 11.21, 12.14 1.92, 32 0 M0 32 C2.25 9.26, 12.38 1.06, 32 0" stroke="#1e1e1e" stroke-width="2" fill="none"></path></g><g transform="translate(820 588) rotate(0 72.32499694824219 12.5)"><text x="0" y="17.52" font-family="Virgil, Segoe UI Emoji" font-size="20px" fill="#1e1e1e" text-anchor="start" style="white-space: pre;" direction="ltr" dominant-baseline="alphabetic">Denied persons</text></g><g transform="translate(264 198.5) rotate(0 53.8125 12.5)"><text x="0" y="17.52" font-family="Virgil, Segoe UI Emoji" font-size="20px" fill="#e03131" text-anchor="start" style="white-space: pre;" direction="ltr" dominant-baseline="alphabetic">Evil dancer</text></g><g transform="translate(559 771.5) rotate(0 113.30000305175781 37.5)"><text x="0" y="17.52" font-family="Virgil, Segoe UI Emoji" font-size="20px" fill="#1e1e1e" text-anchor="start" style="white-space: pre;" direction="ltr" dominant-baseline="alphabetic">Bouncer A will have to</text><text x="0" y="42.519999999999996" font-family="Virgil, Segoe UI Emoji" font-size="20px" fill="#1e1e1e" text-anchor="start" style="white-space: pre;" direction="ltr" dominant-baseline="alphabetic">evaluate if evil dancer</text><text x="0" y="67.52" font-family="Virgil, Segoe UI Emoji" font-size="20px" fill="#1e1e1e" text-anchor="start" style="white-space: pre;" direction="ltr" dominant-baseline="alphabetic">is evil (takes time)</text></g><g transform="translate(840 651.5) rotate(0 4.675000190734863 12.5)"><text x="0" y="17.52" font-family="Virgil, Segoe UI Emoji" font-size="20px" fill="#e03131" text-anchor="start" style="white-space: pre;" direction="ltr" dominant-baseline="alphabetic">?</text></g><g stroke-linecap="round" transform="translate(2003.4999999999995 321.2500000000002) rotate(0 228 101.5)"><path d="M32 0 C119.43 -1.67, 209.9 -0.97, 424 0 C446.92 1.76, 456.9 11.34, 456 32 C460.01 73.54, 460.16 115.78, 456 171 C458.76 193.49, 445.46 199.89, 424 203 C340.8 205.33, 254.74 208.02, 32 203 C11.16 206.36, 0.72 191.66, 0 171 C4.53 127.66, 5.89 87.01, 0 32 C-0.29 9.26, 12.38 1.38, 32 0" stroke="none" stroke-width="0" fill="#eaddd7"></path><path d="M32 0 C141.51 -1.15, 252.32 -1.07, 424 0 M32 0 C124.45 0.45, 216.64 -0.25, 424 0 M424 0 C443.39 1.78, 454.29 10.49, 456 32 M424 0 C443.77 -1.89, 454 9.85, 456 32 M456 32 C458.79 65.91, 457.02 98.91, 456 171 M456 32 C456.2 64.23, 457.86 96.27, 456 171 M456 171 C454.09 191.15, 444.92 204.23, 424 203 M456 171 C456.38 193.64, 447 202.75, 424 203 M424 203 C295.39 201.59, 168.24 202.13, 32 203 M424 203 C318.33 202.51, 211.41 203.29, 32 203 M32 203 C11.07 203.99, 0.12 194.22, 0 171 M32 203 C10.83 201.25, -1.36 193.53, 0 171 M0 171 C-1.51 138.46, 0.54 100.95, 0 32 M0 171 C0.09 140.03, 0.54 109.11, 0 32 M0 32 C-1.49 10.58, 9.14 1.41, 32 0 M0 32 C0.13 9, 11.07 -1.9, 32 0" stroke="#1e1e1e" stroke-width="2" fill="none"></path></g><g transform="translate(2172.637500762939 410.2500000000002) rotate(0 58.86249923706055 12.5)"><text x="58.86249923706055" y="17.52" font-family="Virgil, Segoe UI Emoji" font-size="20px" fill="#1e1e1e" text-anchor="middle" style="white-space: pre;" direction="ltr" dominant-baseline="alphabetic">Discotheque</text></g><g stroke-linecap="round" transform="translate(2187.4999999999995 575.2500000000002) rotate(0 35.5 35.5)"><path d="M50.11 2.26 C56.29 4.17, 61.73 10.84, 65.14 16.81 C68.56 22.79, 71.15 31.12, 70.6 38.11 C70.04 45.1, 66.49 53.55, 61.83 58.75 C57.17 63.96, 49.34 67.91, 42.63 69.35 C35.92 70.8, 27.7 69.99, 21.55 67.4 C15.41 64.81, 9.44 59.62, 5.76 53.81 C2.07 48, -0.94 39.61, -0.58 32.55 C-0.23 25.48, 3.36 16.7, 7.9 11.43 C12.45 6.16, 19.05 2.09, 26.67 0.92 C34.29 -0.25, 48.33 3.19, 53.63 4.42 C58.93 5.65, 58.64 7.56, 58.46 8.27 M40.68 -0.85 C47.44 -0.5, 55.79 4.61, 60.95 9.6 C66.1 14.59, 70.28 22.18, 71.59 29.09 C72.89 36.01, 71.93 45.05, 68.78 51.09 C65.62 57.12, 59.16 62.02, 52.67 65.31 C46.17 68.6, 36.53 71.25, 29.82 70.83 C23.12 70.42, 17.4 67.46, 12.42 62.82 C7.44 58.17, 1.23 50, -0.07 42.97 C-1.37 35.93, 1.3 26.98, 4.61 20.6 C7.91 14.22, 13.94 8.11, 19.78 4.7 C25.63 1.29, 36.56 0.82, 39.66 0.14 C42.75 -0.54, 38.25 0.22, 38.36 0.63" stroke="none" stroke-width="0" fill="#ffd8a8"></path><path d="M25.76 2.25 C31.84 -0.36, 39.85 -1, 46.49 1.04 C53.13 3.08, 61.53 8.7, 65.6 14.47 C69.67 20.24, 71.35 28.72, 70.9 35.67 C70.45 42.62, 67.16 50.63, 62.89 56.18 C58.63 61.73, 51.68 66.94, 45.31 68.96 C38.93 70.99, 31 70.55, 24.63 68.32 C18.25 66.09, 11.18 61.32, 7.06 55.6 C2.93 49.89, -0.03 40.86, -0.11 34.06 C-0.18 27.25, 2.17 20.45, 6.6 14.77 C11.04 9.1, 22.67 2.14, 26.5 0 C30.33 -2.13, 29.3 1.38, 29.57 1.95 M25.44 2.38 C31.86 -0.18, 41.61 -0.44, 48.21 1.79 C54.81 4.02, 61.28 10.13, 65.02 15.76 C68.76 21.39, 71.03 28.6, 70.64 35.56 C70.25 42.52, 66.89 51.94, 62.67 57.52 C58.46 63.1, 51.83 67.14, 45.37 69.03 C38.91 70.93, 30.2 71.22, 23.93 68.9 C17.65 66.58, 11.8 60.57, 7.72 55.1 C3.64 49.64, -0.51 42.82, -0.55 36.1 C-0.59 29.39, 3.19 20.34, 7.49 14.82 C11.8 9.29, 22.28 5.24, 25.28 2.94 C28.28 0.65, 25.49 0.61, 25.5 1.07" stroke="#f08c00" stroke-width="2" fill="none"></path></g><g transform="translate(2176.4999999999995 649.2500000000002) rotate(0 51 12.5)"><text x="0" y="17.52" font-family="Virgil, Segoe UI Emoji" font-size="20px" fill="#f08c00" text-anchor="start" style="white-space: pre;" direction="ltr" dominant-baseline="alphabetic">Bouncer A</text></g><g stroke-linecap="round" transform="translate(2525.4999999999995 382.2500000000002) rotate(0 35.5 35.5)"><path d="M49.64 1.71 C56.07 3.79, 62.08 10.08, 65.49 15.97 C68.9 21.86, 70.62 30.1, 70.1 37.06 C69.58 44.02, 66.55 52.36, 62.37 57.73 C58.2 63.1, 51.6 67.49, 45.04 69.26 C38.48 71.04, 29.64 70.95, 23.01 68.36 C16.39 65.78, 9.24 59.5, 5.3 53.76 C1.37 48.01, -0.95 40.89, -0.6 33.89 C-0.25 26.89, 2.83 17.13, 7.42 11.78 C12 6.43, 18.96 2.91, 26.91 1.79 C34.86 0.66, 49.66 3.5, 55.13 5.03 C60.6 6.55, 59.97 10.26, 59.76 10.94 M45.84 1.98 C52.08 3.3, 59.22 7.63, 63.22 13.13 C67.22 18.64, 69.65 28.04, 69.85 35.02 C70.05 42.01, 68.12 49.42, 64.4 55.05 C60.69 60.67, 53.8 66.47, 47.54 68.77 C41.29 71.08, 33.68 70.59, 26.9 68.88 C20.12 67.17, 11.3 63.78, 6.87 58.52 C2.44 53.26, 0.42 44.25, 0.32 37.32 C0.21 30.39, 2.37 22.99, 6.25 16.93 C10.13 10.87, 17.23 3.4, 23.61 0.95 C30 -1.51, 41.08 1.85, 44.55 2.2 C48.03 2.55, 44.27 2.68, 44.46 3.04" stroke="#1e1e1e" stroke-width="2" fill="none"></path></g><g transform="translate(2514.4999999999995 456.2500000000002) rotate(0 51 12.5)"><text x="0" y="17.52" font-family="Virgil, Segoe UI Emoji" font-size="20px" fill="#1e1e1e" text-anchor="start" style="white-space: pre;" direction="ltr" dominant-baseline="alphabetic">Bouncer B</text></g><g stroke-linecap="round" transform="translate(2185.7049180327863 483.2500000000002) rotate(0 18.84836065573768 36.5)"><path d="M9.42 0 C15.98 2.49, 23.18 2.34, 28.27 0 C35.72 0.12, 34.59 0.16, 37.7 9.42 C36.8 28, 41.44 43.21, 37.7 63.58 C41.05 70.58, 33.88 72.67, 28.27 73 C21.74 76.41, 17.72 72.92, 9.42 73 C1.73 74.71, 1.38 68.92, 0 63.58 C-0.99 44.21, -1.02 25.88, 0 9.42 C-1.63 1.28, -0.11 2.29, 9.42 0" stroke="none" stroke-width="0" fill="#ffc9c9"></path><path d="M9.42 0 C18.2 -1.42, 23.45 -1.1, 28.27 0 M9.42 0 C13.01 0.92, 17.01 0.79, 28.27 0 M28.27 0 C34.42 -0.24, 36.51 1.77, 37.7 9.42 M28.27 0 C36.44 -1.97, 35.53 3.25, 37.7 9.42 M37.7 9.42 C36.47 29.17, 38.88 50.08, 37.7 63.58 M37.7 9.42 C38.36 29.12, 37.85 47.64, 37.7 63.58 M37.7 63.58 C36.19 70.66, 33.97 72.42, 28.27 73 M37.7 63.58 C37.78 69.64, 36.6 71.92, 28.27 73 M28.27 73 C24.25 73.15, 20.14 73.17, 9.42 73 M28.27 73 C23.56 73.69, 20.59 72.8, 9.42 73 M9.42 73 C5.05 74.41, -1.16 68.25, 0 63.58 M9.42 73 C2.14 72.39, -1.19 68.85, 0 63.58 M0 63.58 C0.36 46.14, 1.85 31.88, 0 9.42 M0 63.58 C-0.85 50.36, -0.08 38.57, 0 9.42 M0 9.42 C-1.52 4.69, 2.28 0.88, 9.42 0 M0 9.42 C1.12 3.72, 3.57 -0.02, 9.42 0" stroke="#1e1e1e" stroke-width="2" fill="none"></path></g><g stroke-linecap="round" transform="translate(2215.6229508196716 520.3483606557379) rotate(0 2.3934426229507153 3.5901639344262435)"><path d="M2.07 -0.01 C2.53 -0.12, 3.08 0.02, 3.52 0.43 C3.96 0.84, 4.49 1.67, 4.7 2.46 C4.91 3.25, 5.04 4.43, 4.78 5.17 C4.52 5.92, 3.68 6.66, 3.13 6.93 C2.58 7.19, 1.97 7.01, 1.46 6.79 C0.96 6.57, 0.38 6.25, 0.12 5.61 C-0.14 4.98, -0.24 3.76, -0.1 2.97 C0.04 2.18, 0.57 1.34, 0.98 0.87 C1.4 0.4, 2.17 0.29, 2.4 0.17 C2.63 0.05, 2.39 0.08, 2.37 0.14 M2.5 0.11 C2.98 0.01, 3.71 0.4, 4.07 0.73 C4.44 1.06, 4.68 1.38, 4.7 2.1 C4.72 2.81, 4.32 4.16, 4.19 5.02 C4.05 5.88, 4.32 6.87, 3.89 7.26 C3.46 7.65, 2.13 7.6, 1.63 7.36 C1.13 7.12, 1.09 6.47, 0.9 5.83 C0.7 5.19, 0.53 4.3, 0.47 3.51 C0.41 2.73, 0.36 1.7, 0.54 1.1 C0.73 0.5, 1.29 0.14, 1.6 -0.09 C1.91 -0.33, 2.22 -0.31, 2.38 -0.31" stroke="none" stroke-width="0" fill="#1e1e1e"></path><path d="M2.01 -0.16 C2.58 -0.28, 3.53 -0.08, 4.02 0.37 C4.51 0.83, 4.85 1.81, 4.94 2.55 C5.03 3.29, 4.83 4.07, 4.55 4.82 C4.26 5.58, 3.73 6.75, 3.23 7.08 C2.73 7.4, 2.01 6.95, 1.55 6.77 C1.09 6.58, 0.75 6.59, 0.48 5.97 C0.22 5.35, -0.02 3.87, -0.03 3.05 C-0.03 2.23, 0.06 1.55, 0.46 1.05 C0.86 0.55, 2.04 0.19, 2.36 0.07 C2.68 -0.05, 2.42 0.26, 2.38 0.33 M2.17 0.21 C2.65 0.22, 3.46 0.36, 3.9 0.84 C4.34 1.33, 4.63 2.39, 4.79 3.14 C4.95 3.89, 5.15 4.62, 4.83 5.34 C4.52 6.06, 3.43 7.17, 2.88 7.47 C2.33 7.76, 1.97 7.43, 1.54 7.13 C1.1 6.83, 0.52 6.45, 0.28 5.66 C0.04 4.86, 0.04 3.15, 0.1 2.37 C0.17 1.58, 0.31 1.3, 0.68 0.96 C1.04 0.62, 1.9 0.49, 2.28 0.32 C2.66 0.15, 2.82 -0.15, 2.94 -0.08" stroke="#1e1e1e" stroke-width="2" fill="none"></path></g><g stroke-linecap="round" transform="translate(2222.803278688524 483.2500000000002) rotate(0 18.84836065573768 36.5)"><path d="M9.42 0 C17.7 -0.14, 20.86 -3.07, 28.27 0 C34.82 2.91, 41.12 1.46, 37.7 9.42 C41.85 29.29, 37.83 47.39, 37.7 63.58 C34.13 69.01, 36.6 70.08, 28.27 73 C19.5 74.58, 14.7 72.09, 9.42 73 C4.91 76.13, 3.06 69.71, 0 63.58 C-1.58 46.17, -3.2 34.78, 0 9.42 C-1.72 2.29, 3.93 -1.5, 9.42 0" stroke="none" stroke-width="0" fill="#ffc9c9"></path><path d="M9.42 0 C11.92 -1.51, 16.85 -0.91, 28.27 0 M9.42 0 C16.71 -0.26, 23.57 -0.79, 28.27 0 M28.27 0 C36.19 -1.72, 35.81 3.23, 37.7 9.42 M28.27 0 C36.22 -0.21, 35.5 1.79, 37.7 9.42 M37.7 9.42 C39.16 25.99, 37.81 40.19, 37.7 63.58 M37.7 9.42 C36.81 28.11, 37.28 45.7, 37.7 63.58 M37.7 63.58 C37.77 69.67, 36.34 72.06, 28.27 73 M37.7 63.58 C36.84 71.84, 35.02 74.13, 28.27 73 M28.27 73 C21.07 71.9, 17.72 72.03, 9.42 73 M28.27 73 C22.34 73.6, 14.06 72.18, 9.42 73 M9.42 73 C2.27 72.47, -1.03 68.98, 0 63.58 M9.42 73 C3 71.11, -1.71 69.76, 0 63.58 M0 63.58 C-1.83 51.82, -2.03 37.85, 0 9.42 M0 63.58 C-0.77 52.88, -0.44 41.08, 0 9.42 M0 9.42 C0.98 3.64, 3.52 -0.02, 9.42 0 M0 9.42 C1.14 1.41, 4.91 -0.02, 9.42 0" stroke="#1e1e1e" stroke-width="2" fill="none"></path></g><g stroke-linecap="round" transform="translate(2225.7950819672124 520.3483606557379) rotate(0 2.3934426229507153 3.5901639344262435)"><path d="M2.35 -0.25 C2.93 -0.26, 3.79 0.29, 4.15 0.84 C4.51 1.38, 4.5 2.28, 4.51 2.99 C4.51 3.7, 4.46 4.44, 4.2 5.1 C3.94 5.76, 3.39 6.69, 2.94 6.96 C2.49 7.23, 1.88 7, 1.49 6.72 C1.09 6.44, 0.81 5.87, 0.59 5.27 C0.37 4.68, 0.12 3.89, 0.18 3.17 C0.23 2.44, 0.55 1.43, 0.92 0.93 C1.29 0.43, 2.19 0.26, 2.4 0.16 C2.61 0.07, 2.19 0.25, 2.19 0.33 M2.48 -0.43 C2.83 -0.48, 3.12 0.28, 3.57 0.94 C4.02 1.61, 5.06 2.75, 5.17 3.54 C5.27 4.34, 4.46 5.16, 4.2 5.74 C3.93 6.33, 3.93 6.85, 3.56 7.07 C3.19 7.28, 2.54 7.33, 1.98 7.03 C1.42 6.72, 0.6 5.96, 0.19 5.25 C-0.21 4.54, -0.61 3.56, -0.45 2.75 C-0.28 1.93, 0.63 0.9, 1.19 0.37 C1.76 -0.16, 2.73 -0.35, 2.94 -0.44 C3.14 -0.52, 2.46 -0.29, 2.42 -0.12" stroke="none" stroke-width="0" fill="#1e1e1e"></path><path d="M2.43 -0.01 C2.86 -0.12, 3.38 -0.05, 3.72 0.44 C4.06 0.93, 4.38 2.2, 4.47 2.92 C4.57 3.64, 4.46 4.09, 4.28 4.78 C4.11 5.47, 3.85 6.75, 3.43 7.08 C3.01 7.41, 2.29 6.99, 1.75 6.74 C1.22 6.5, 0.5 6.16, 0.24 5.59 C-0.01 5.03, 0.11 4.06, 0.21 3.35 C0.32 2.63, 0.56 1.85, 0.88 1.3 C1.21 0.76, 1.92 0.32, 2.17 0.1 C2.42 -0.12, 2.38 0, 2.37 0 M2.57 -0.04 C3.16 -0.05, 4.16 0.15, 4.5 0.77 C4.83 1.38, 4.59 2.79, 4.59 3.63 C4.59 4.48, 4.73 5.19, 4.48 5.84 C4.23 6.48, 3.59 7.4, 3.09 7.51 C2.59 7.62, 1.99 6.84, 1.46 6.49 C0.94 6.15, 0.23 6.01, -0.05 5.43 C-0.33 4.86, -0.43 3.86, -0.19 3.04 C0.05 2.23, 0.85 0.98, 1.38 0.53 C1.92 0.08, 2.88 0.5, 3.03 0.36 C3.18 0.22, 2.38 -0.3, 2.26 -0.32" stroke="#1e1e1e" stroke-width="2" fill="none"></path></g><g stroke-linecap="round" transform="translate(2441.012392375201 408.2881621027641) rotate(271.97493401088195 18.84836065573768 36.5)"><path d="M9.42 0 C15.4 3.02, 24.09 -1.31, 28.27 0 C36.49 2.96, 38.19 6.5, 37.7 9.42 C33.95 25.9, 39.56 41.17, 37.7 63.58 C41.11 66.7, 34.26 71.59, 28.27 73 C23.39 75.86, 18.06 72.77, 9.42 73 C2.68 72.83, 0.11 68.23, 0 63.58 C-0.84 49.29, 1.67 35.19, 0 9.42 C-0.17 6.23, 5.96 3.56, 9.42 0" stroke="none" stroke-width="0" fill="#ffc9c9"></path><path d="M9.42 0 C15.14 -1.16, 18.9 -0.03, 28.27 0 M9.42 0 C15.63 -0.68, 19.4 0.17, 28.27 0 M28.27 0 C36 -0.18, 35.79 1.96, 37.7 9.42 M28.27 0 C34.08 1.41, 38.08 4.45, 37.7 9.42 M37.7 9.42 C38.39 29.12, 36.79 48.24, 37.7 63.58 M37.7 9.42 C37.57 27.74, 38.43 45.78, 37.7 63.58 M37.7 63.58 C36.96 71.58, 34.96 73.99, 28.27 73 M37.7 63.58 C37.83 72.03, 34.72 71.25, 28.27 73 M28.27 73 C24.91 74.42, 18.59 74.7, 9.42 73 M28.27 73 C20.88 72.6, 13.83 72.43, 9.42 73 M9.42 73 C3.02 71.36, -1.49 69.77, 0 63.58 M9.42 73 C1.39 74.62, 0.13 68.2, 0 63.58 M0 63.58 C-1.32 46.41, -0.23 27.65, 0 9.42 M0 63.58 C0.72 43.38, 0.42 22.68, 0 9.42 M0 9.42 C0.99 1.64, 4.68 -0.02, 9.42 0 M0 9.42 C1.87 3.54, 4.9 0.74, 9.42 0" stroke="#1e1e1e" stroke-width="2" fill="none"></path></g><g stroke-linecap="round" transform="translate(2462.1173165861555 427.88722660289375) rotate(271.97493401088195 2.3934426229507153 3.5901639344262435)"><path d="M1.85 0.09 C2.24 -0.1, 2.99 -0.09, 3.41 0.32 C3.83 0.73, 4.21 1.8, 4.38 2.53 C4.56 3.26, 4.59 4.04, 4.49 4.72 C4.38 5.41, 4.16 6.22, 3.75 6.64 C3.34 7.06, 2.54 7.39, 2.01 7.25 C1.48 7.12, 0.91 6.44, 0.57 5.83 C0.24 5.22, 0.03 4.32, 0 3.59 C-0.03 2.85, 0.03 1.96, 0.38 1.41 C0.74 0.86, 1.82 0.47, 2.12 0.29 C2.43 0.12, 2.2 0.33, 2.22 0.34 M2.45 0.51 C2.96 0.4, 2.98 0.47, 3.42 0.81 C3.86 1.14, 4.8 1.83, 5.08 2.53 C5.35 3.24, 5.36 4.33, 5.08 5.02 C4.81 5.72, 4.04 6.38, 3.43 6.71 C2.82 7.03, 1.85 7.2, 1.41 6.99 C0.97 6.77, 0.95 6.06, 0.8 5.41 C0.64 4.75, 0.51 3.78, 0.47 3.04 C0.44 2.31, 0.26 1.47, 0.57 1 C0.87 0.53, 2.06 0.34, 2.29 0.23 C2.51 0.12, 1.89 0.26, 1.93 0.35" stroke="none" stroke-width="0" fill="#1e1e1e"></path><path d="M2.14 0.27 C2.58 0.2, 3.19 0.02, 3.62 0.5 C4.06 0.98, 4.62 2.41, 4.76 3.17 C4.9 3.92, 4.74 4.41, 4.45 5.03 C4.16 5.65, 3.48 6.55, 3.04 6.88 C2.6 7.21, 2.23 7.24, 1.81 7.03 C1.39 6.83, 0.83 6.32, 0.52 5.66 C0.22 5.01, -0.08 3.91, 0 3.1 C0.07 2.29, 0.58 1.35, 0.96 0.79 C1.34 0.23, 2 -0.12, 2.27 -0.25 C2.54 -0.39, 2.58 -0.13, 2.59 -0.02 M2.17 0.43 C2.6 0.45, 3.57 0.56, 4 1.05 C4.44 1.54, 4.69 2.73, 4.77 3.38 C4.86 4.03, 4.82 4.32, 4.52 4.96 C4.22 5.59, 3.48 6.82, 2.95 7.2 C2.42 7.59, 1.72 7.62, 1.35 7.29 C0.98 6.97, 0.88 5.93, 0.74 5.27 C0.6 4.62, 0.54 4.17, 0.51 3.37 C0.47 2.57, 0.27 1.06, 0.54 0.47 C0.81 -0.11, 1.88 -0.03, 2.14 -0.13 C2.4 -0.24, 2.07 -0.16, 2.1 -0.15" stroke="#1e1e1e" stroke-width="2" fill="none"></path></g><g stroke-linecap="round" transform="translate(2442.2908863133225 371.2118378972364) rotate(271.97493401088195 18.84836065573768 36.5)"><path d="M9.42 0 C18.42 2.95, 24.24 3.32, 28.27 0 C35.28 -0.67, 37.37 -0.42, 37.7 9.42 C41.66 21.23, 37.96 37.94, 37.7 63.58 C39.41 71.24, 33.62 74.77, 28.27 73 C20.54 72.83, 13.79 71.45, 9.42 73 C1.28 69.75, 2.29 68.14, 0 63.58 C-0.38 51.69, 2.6 37.2, 0 9.42 C3.42 1.73, 6.02 -2.98, 9.42 0" stroke="none" stroke-width="0" fill="#ffc9c9"></path><path d="M9.42 0 C13.6 -1.11, 16.92 1.56, 28.27 0 M9.42 0 C14.14 -0.09, 16.6 -0.56, 28.27 0 M28.27 0 C34.14 1.23, 38.03 4.28, 37.7 9.42 M28.27 0 C36.22 -0.25, 38.31 4.01, 37.7 9.42 M37.7 9.42 C38.27 23.81, 36.88 39.44, 37.7 63.58 M37.7 9.42 C37.81 26.02, 38.38 41.39, 37.7 63.58 M37.7 63.58 C37.82 71.74, 34.7 71.48, 28.27 73 M37.7 63.58 C36.34 71.06, 33.35 74.44, 28.27 73 M28.27 73 C22.43 72.09, 12.42 72.36, 9.42 73 M28.27 73 C23.06 72.14, 17.26 72.88, 9.42 73 M9.42 73 C1.62 74.41, 0.11 68.41, 0 63.58 M9.42 73 C3.55 71.1, -1.73 67.83, 0 63.58 M0 63.58 C1.73 46.37, 1.07 31.85, 0 9.42 M0 63.58 C0.39 45.22, 0.67 28.36, 0 9.42 M0 9.42 C1.62 3.49, 4.67 0.64, 9.42 0 M0 9.42 C0.08 1.16, 1.24 0.17, 9.42 0" stroke="#1e1e1e" stroke-width="2" fill="none"></path></g><g stroke-linecap="round" transform="translate(2462.467871375641 417.7211377078296) rotate(271.97493401088195 2.3934426229507153 3.5901639344262435)"><path d="M2.17 0.01 C2.68 -0.02, 3.4 0.17, 3.87 0.66 C4.35 1.14, 4.9 2.1, 5.02 2.93 C5.14 3.76, 4.88 4.95, 4.58 5.64 C4.28 6.33, 3.74 6.82, 3.23 7.06 C2.72 7.3, 2.04 7.34, 1.51 7.09 C0.97 6.84, 0.28 6.21, 0.04 5.55 C-0.21 4.89, -0.11 3.89, 0.05 3.13 C0.2 2.38, 0.54 1.55, 0.97 1.03 C1.39 0.51, 2.39 0.22, 2.6 0.01 C2.82 -0.19, 2.26 -0.3, 2.24 -0.2 M3.18 0.11 C3.78 0.16, 4.42 0.78, 4.67 1.34 C4.92 1.9, 4.85 2.75, 4.69 3.49 C4.54 4.22, 4.02 5.2, 3.76 5.74 C3.5 6.27, 3.47 6.62, 3.13 6.71 C2.79 6.8, 2.21 6.63, 1.7 6.29 C1.2 5.95, 0.34 5.29, 0.12 4.68 C-0.11 4.06, 0.22 3.26, 0.37 2.61 C0.52 1.95, 0.56 1.11, 1.03 0.76 C1.51 0.4, 2.92 0.59, 3.21 0.47 C3.49 0.35, 2.83 0.06, 2.74 0.05" stroke="none" stroke-width="0" fill="#1e1e1e"></path><path d="M2.73 0.27 C3.26 0.33, 3.83 0.34, 4.14 0.86 C4.45 1.38, 4.53 2.55, 4.59 3.38 C4.65 4.22, 4.74 5.19, 4.49 5.85 C4.24 6.51, 3.63 7.17, 3.09 7.34 C2.55 7.51, 1.7 7.27, 1.24 6.85 C0.78 6.44, 0.51 5.64, 0.3 4.87 C0.09 4.1, -0.18 2.97, -0.03 2.24 C0.13 1.5, 0.81 0.82, 1.25 0.45 C1.7 0.09, 2.4 0.06, 2.65 0.05 C2.9 0.05, 2.76 0.38, 2.74 0.42 M2.77 0.51 C3.24 0.46, 3.93 0.28, 4.21 0.82 C4.5 1.36, 4.52 2.86, 4.49 3.74 C4.46 4.62, 4.21 5.59, 4.01 6.12 C3.81 6.66, 3.66 6.78, 3.28 6.94 C2.9 7.11, 2.3 7.51, 1.74 7.1 C1.17 6.7, 0.19 5.31, -0.12 4.52 C-0.42 3.72, -0.26 3.03, -0.1 2.33 C0.07 1.63, 0.41 0.77, 0.87 0.32 C1.34 -0.13, 2.46 -0.33, 2.7 -0.37 C2.95 -0.41, 2.42 -0.1, 2.36 0.09" stroke="#1e1e1e" stroke-width="2" fill="none"></path></g><g stroke-linecap="round" transform="translate(2230.199840104008 267.5593710096634) rotate(539.411163799417 18.84836065573768 36.5)"><path d="M9.42 0 C17.31 -0.95, 23.52 -3.68, 28.27 0 C33.7 2.05, 34.78 6.55, 37.7 9.42 C39.33 22.31, 36.68 34.19, 37.7 63.58 C40.83 72.92, 34.41 72.53, 28.27 73 C20.95 69.78, 19.3 71.23, 9.42 73 C2.29 73.79, -1.5 69.69, 0 63.58 C2.66 41.27, 2.11 18.82, 0 9.42 C-1.18 5.16, 2.51 -1.22, 9.42 0" stroke="none" stroke-width="0" fill="#ffc9c9"></path><path d="M9.42 0 C12.34 -1.93, 18.57 1.21, 28.27 0 M9.42 0 C14.71 0.69, 20.55 0.65, 28.27 0 M28.27 0 C36 -0.22, 38.23 3.89, 37.7 9.42 M28.27 0 C34.01 -0.98, 35.96 4.06, 37.7 9.42 M37.7 9.42 C37.35 25.87, 36.6 38.01, 37.7 63.58 M37.7 9.42 C37.87 31.28, 37.88 50.49, 37.7 63.58 M37.7 63.58 C36.52 70.9, 33.51 74.25, 28.27 73 M37.7 63.58 C39.55 69.12, 36.74 74.62, 28.27 73 M28.27 73 C23.21 71.94, 18.31 72.8, 9.42 73 M28.27 73 C23.45 73.65, 20.11 72.31, 9.42 73 M9.42 73 C3.5 71.35, -1.5 68.09, 0 63.58 M9.42 73 C3.19 72.22, -1.75 71.64, 0 63.58 M0 63.58 C0.26 50.03, -0.26 36.72, 0 9.42 M0 63.58 C0.39 51.58, 0.35 39.56, 0 9.42 M0 9.42 C0.07 1.41, 1.49 0.15, 9.42 0 M0 9.42 C1.86 5.33, 2.07 1.23, 9.42 0" stroke="#1e1e1e" stroke-width="2" fill="none"></path></g><g stroke-linecap="round" transform="translate(2233.1493091036764 296.41926342892697) rotate(539.411163799417 2.3934426229507153 3.590163934426215)"><path d="M2.66 -0.14 C3.19 -0.12, 3.72 0.48, 4.09 1.01 C4.45 1.54, 4.77 2.28, 4.84 3.04 C4.9 3.8, 4.77 4.86, 4.46 5.56 C4.15 6.26, 3.44 6.95, 2.95 7.22 C2.47 7.5, 1.99 7.5, 1.56 7.23 C1.13 6.96, 0.61 6.34, 0.37 5.63 C0.14 4.92, 0.11 3.81, 0.15 2.97 C0.18 2.12, 0.19 1.01, 0.57 0.56 C0.96 0.11, 2.09 0.38, 2.45 0.27 C2.82 0.16, 2.75 -0.14, 2.77 -0.08 M2.35 -0.05 C2.68 -0.11, 3.03 0.33, 3.48 0.77 C3.93 1.22, 4.8 1.94, 5.04 2.64 C5.28 3.35, 5.23 4.33, 4.91 5.02 C4.59 5.71, 3.65 6.44, 3.12 6.79 C2.59 7.15, 2.25 7.33, 1.76 7.13 C1.27 6.92, 0.38 6.2, 0.16 5.56 C-0.05 4.92, 0.36 4.12, 0.48 3.31 C0.6 2.51, 0.55 1.27, 0.88 0.72 C1.2 0.17, 2.2 0.17, 2.42 0.02 C2.65 -0.14, 2.29 -0.3, 2.22 -0.19" stroke="none" stroke-width="0" fill="#1e1e1e"></path><path d="M2.48 -0.04 C3.01 0.06, 3.93 0.58, 4.35 1.19 C4.76 1.81, 4.99 2.86, 4.97 3.64 C4.96 4.41, 4.59 5.27, 4.27 5.84 C3.95 6.4, 3.58 6.89, 3.06 7.01 C2.54 7.13, 1.63 6.89, 1.17 6.54 C0.71 6.19, 0.52 5.56, 0.33 4.9 C0.13 4.24, -0.12 3.23, 0.01 2.56 C0.13 1.89, 0.63 1.32, 1.06 0.88 C1.48 0.44, 2.23 0.03, 2.56 -0.09 C2.89 -0.21, 2.98 0.09, 3.03 0.18 M2.47 0.3 C2.91 0.49, 3.49 1.04, 3.94 1.55 C4.39 2.06, 5.06 2.59, 5.19 3.37 C5.32 4.14, 5.17 5.64, 4.73 6.2 C4.29 6.76, 3.18 6.65, 2.56 6.71 C1.94 6.78, 1.46 6.94, 1.02 6.6 C0.57 6.25, 0.05 5.42, -0.1 4.66 C-0.25 3.89, -0.05 2.71, 0.1 2.01 C0.25 1.32, 0.41 0.76, 0.79 0.49 C1.17 0.22, 2.05 0.52, 2.39 0.4 C2.72 0.27, 2.72 -0.18, 2.79 -0.25" stroke="#1e1e1e" stroke-width="2" fill="none"></path></g><g stroke-linecap="round" transform="translate(2193.103438584516 267.9406289903371) rotate(539.411163799417 18.84836065573768 36.5)"><path d="M9.42 0 C13.92 2.27, 17.28 3.55, 28.27 0 C31.4 -0.29, 36.29 4.85, 37.7 9.42 C40.57 30.82, 37.3 45.61, 37.7 63.58 C37.53 69.97, 32.93 71.14, 28.27 73 C23.52 73.58, 18.95 72.68, 9.42 73 C6.23 75.82, 3.56 73.28, 0 63.58 C-1.96 51.47, -1.41 34.11, 0 9.42 C-2.43 6.63, 3.02 0.65, 9.42 0" stroke="none" stroke-width="0" fill="#ffc9c9"></path><path d="M9.42 0 C13.13 -1.94, 16.07 -0.53, 28.27 0 M9.42 0 C16.92 -0.21, 23.3 0.25, 28.27 0 M28.27 0 C34.09 -0.85, 36.19 3.94, 37.7 9.42 M28.27 0 C33.88 -0.67, 37.78 2.92, 37.7 9.42 M37.7 9.42 C39.17 30.9, 38.43 51.69, 37.7 63.58 M37.7 9.42 C37.14 31.29, 37.21 52.74, 37.7 63.58 M37.7 63.58 C39.31 69.22, 36.46 74.41, 28.27 73 M37.7 63.58 C36.37 68.01, 33.55 72.39, 28.27 73 M28.27 73 C22.05 71.59, 18.83 71.55, 9.42 73 M28.27 73 C21.46 72.08, 13.61 72.03, 9.42 73 M9.42 73 C3.18 72.32, -1.52 71.41, 0 63.58 M9.42 73 C2.15 74.02, 1.12 70.43, 0 63.58 M0 63.58 C-1.5 47.86, -0.01 30.68, 0 9.42 M0 63.58 C-0.38 45.53, -1.24 29.29, 0 9.42 M0 9.42 C1.61 5.05, 2.21 1.07, 9.42 0 M0 9.42 C1.89 3.45, 5.29 0.46, 9.42 0" stroke="#1e1e1e" stroke-width="2" fill="none"></path></g><g stroke-linecap="round" transform="translate(2222.9777151386547 296.52380190749733) rotate(539.411163799417 2.3934426229507153 3.590163934426215)"><path d="M2.31 0.07 C2.76 -0.03, 3.43 0.36, 3.79 0.85 C4.15 1.33, 4.34 2.21, 4.46 2.97 C4.59 3.74, 4.72 4.74, 4.54 5.43 C4.37 6.12, 3.88 6.85, 3.43 7.12 C2.98 7.39, 2.4 7.35, 1.85 7.05 C1.29 6.76, 0.42 5.92, 0.12 5.33 C-0.18 4.73, -0.12 4.24, 0.04 3.49 C0.19 2.74, 0.64 1.39, 1.05 0.86 C1.45 0.32, 2.23 0.36, 2.44 0.28 C2.66 0.2, 2.37 0.38, 2.35 0.38 M2.64 -0.4 C3.29 -0.51, 4.03 -0.15, 4.38 0.37 C4.72 0.89, 4.65 1.86, 4.7 2.72 C4.76 3.58, 4.99 4.78, 4.72 5.53 C4.46 6.28, 3.56 6.88, 3.12 7.19 C2.67 7.5, 2.51 7.71, 2.04 7.41 C1.58 7.1, 0.66 6.1, 0.32 5.37 C-0.02 4.64, -0.04 3.83, 0.01 3.04 C0.05 2.24, 0.28 1.07, 0.6 0.62 C0.92 0.16, 1.65 0.43, 1.91 0.32 C2.16 0.21, 2.03 -0.02, 2.12 -0.05" stroke="none" stroke-width="0" fill="#1e1e1e"></path><path d="M2.5 0.24 C2.95 0.18, 3.44 0.43, 3.83 0.85 C4.22 1.27, 4.77 2.07, 4.86 2.77 C4.95 3.46, 4.6 4.35, 4.37 5.02 C4.13 5.7, 3.89 6.49, 3.42 6.82 C2.96 7.15, 2.07 7.19, 1.56 7.02 C1.04 6.84, 0.61 6.46, 0.33 5.79 C0.05 5.11, -0.26 3.77, -0.13 2.97 C-0.01 2.17, 0.64 1.48, 1.08 0.99 C1.52 0.5, 2.24 0.17, 2.5 0.02 C2.77 -0.13, 2.75 0.07, 2.68 0.1 M3 -0.15 C3.61 -0.12, 4.31 0.9, 4.56 1.4 C4.81 1.91, 4.56 2.19, 4.49 2.87 C4.42 3.56, 4.43 4.85, 4.14 5.52 C3.85 6.18, 3.22 6.68, 2.76 6.84 C2.29 6.99, 1.84 6.73, 1.35 6.43 C0.87 6.14, 0.13 5.66, -0.15 5.09 C-0.42 4.52, -0.5 3.81, -0.3 3.01 C-0.1 2.21, 0.55 0.86, 1.05 0.29 C1.55 -0.28, 2.49 -0.29, 2.69 -0.4 C2.89 -0.51, 2.24 -0.46, 2.22 -0.36" stroke="#1e1e1e" stroke-width="2" fill="none"></path></g><g stroke-linecap="round" transform="translate(1978.8422683345989 404.2982007597467) rotate(629.4111637994168 18.84836065573768 36.5)"><path d="M9.42 0 C13.18 -0.6, 21.55 1.29, 28.27 0 C35.94 -0.94, 39.46 6.27, 37.7 9.42 C37.49 30.39, 36.03 49.27, 37.7 63.58 C34.45 72.15, 32.84 72.15, 28.27 73 C25.12 75.64, 19.49 76.21, 9.42 73 C1.73 75.87, -2.98 68.68, 0 63.58 C-2.25 47.78, 0.05 25.66, 0 9.42 C0.6 2.36, 6.29 -1.22, 9.42 0" stroke="none" stroke-width="0" fill="#ffc9c9"></path><path d="M9.42 0 C14.44 0.35, 18.2 1.4, 28.27 0 M9.42 0 C14.65 -0.47, 19.61 0.31, 28.27 0 M28.27 0 C33.97 -0.58, 37.77 2.95, 37.7 9.42 M28.27 0 C36.6 -1.08, 36.84 5.12, 37.7 9.42 M37.7 9.42 C39.85 26.9, 36.44 42.91, 37.7 63.58 M37.7 9.42 C38.22 28.17, 38.37 48.27, 37.7 63.58 M37.7 63.58 C36.54 68.25, 33.69 72.47, 28.27 73 M37.7 63.58 C36.51 68.85, 34.41 71.11, 28.27 73 M28.27 73 C25.35 72.96, 18.41 73.19, 9.42 73 M28.27 73 C24.19 72.51, 19.36 73.56, 9.42 73 M9.42 73 C2.28 73.88, 0.98 70.36, 0 63.58 M9.42 73 C3.57 72.98, 1.14 68.13, 0 63.58 M0 63.58 C0.35 44.7, 0.65 22.82, 0 9.42 M0 63.58 C1.26 52.96, -0.02 40.97, 0 9.42 M0 9.42 C1.64 3.41, 5.01 0.4, 9.42 0 M0 9.42 C-0.43 2.93, 0.86 -0.54, 9.42 0" stroke="#1e1e1e" stroke-width="2" fill="none"></path></g><g stroke-linecap="round" transform="translate(1999.3471300136957 423.70258779220194) rotate(629.4111637994168 2.3934426229507153 3.5901639344262435)"><path d="M2.22 0.26 C2.71 0.25, 3.55 0.67, 3.99 1.18 C4.42 1.7, 4.73 2.61, 4.82 3.33 C4.91 4.05, 4.86 4.93, 4.54 5.49 C4.21 6.06, 3.35 6.44, 2.85 6.72 C2.35 7.01, 1.91 7.46, 1.53 7.19 C1.15 6.93, 0.82 5.81, 0.6 5.13 C0.38 4.45, 0.17 3.81, 0.23 3.13 C0.29 2.46, 0.56 1.61, 0.96 1.08 C1.35 0.55, 2.33 0.16, 2.59 -0.06 C2.86 -0.28, 2.58 -0.35, 2.55 -0.25 M2.03 -0.16 C2.47 -0.2, 3.49 0.26, 3.91 0.75 C4.33 1.23, 4.35 1.97, 4.54 2.74 C4.73 3.51, 5.22 4.72, 5.04 5.38 C4.87 6.04, 4.02 6.41, 3.49 6.7 C2.96 6.99, 2.4 7.31, 1.86 7.11 C1.33 6.92, 0.66 6.09, 0.27 5.53 C-0.11 4.97, -0.47 4.51, -0.45 3.77 C-0.43 3.02, -0.05 1.71, 0.38 1.06 C0.82 0.4, 1.9 -0.09, 2.18 -0.18 C2.46 -0.26, 2 0.36, 2.05 0.53" stroke="none" stroke-width="0" fill="#1e1e1e"></path><path d="M2.81 -0.05 C3.28 -0.07, 3.65 0.33, 4 0.89 C4.35 1.44, 4.88 2.49, 4.92 3.3 C4.95 4.11, 4.55 5.08, 4.21 5.76 C3.87 6.44, 3.41 7.23, 2.9 7.38 C2.39 7.54, 1.56 7.05, 1.15 6.67 C0.75 6.28, 0.63 5.75, 0.48 5.07 C0.33 4.38, 0.11 3.31, 0.27 2.57 C0.42 1.82, 1.03 1.06, 1.4 0.61 C1.77 0.15, 2.23 -0.05, 2.49 -0.16 C2.75 -0.27, 2.9 -0.19, 2.97 -0.05 M1.98 -0.4 C2.35 -0.56, 3.2 0.1, 3.61 0.59 C4.03 1.08, 4.32 1.86, 4.47 2.56 C4.61 3.26, 4.75 4.09, 4.5 4.81 C4.24 5.52, 3.49 6.44, 2.96 6.87 C2.43 7.3, 1.74 7.66, 1.31 7.38 C0.89 7.1, 0.62 5.96, 0.42 5.19 C0.21 4.42, 0.11 3.52, 0.11 2.74 C0.1 1.97, 0.02 1.01, 0.38 0.53 C0.74 0.04, 2.02 -0.15, 2.27 -0.16 C2.53 -0.17, 1.92 0.34, 1.89 0.46" stroke="#1e1e1e" stroke-width="2" fill="none"></path></g><g stroke-linecap="round" transform="translate(1978.4610103539244 367.20179924025376) rotate(629.4111637994168 18.84836065573768 36.5)"><path d="M9.42 0 C16.23 -1.04, 22.09 2.79, 28.27 0 C37.62 -0.15, 37.23 2.97, 37.7 9.42 C34.01 28.13, 35.54 41.4, 37.7 63.58 C38.48 68.36, 34.39 76.09, 28.27 73 C19.81 76.03, 11.21 72.21, 9.42 73 C5.16 72.37, -1.22 67.43, 0 63.58 C0.63 41.31, 3.18 19.37, 0 9.42 C1.76 5.54, 5.84 -2.75, 9.42 0" stroke="none" stroke-width="0" fill="#ffc9c9"></path><path d="M9.42 0 C15.19 0.37, 22.07 -0.58, 28.27 0 M9.42 0 C14 -0.35, 19.17 -0.16, 28.27 0 M28.27 0 C36.34 -0.94, 36.96 4.87, 37.7 9.42 M28.27 0 C35.02 1.13, 37.83 5.31, 37.7 9.42 M37.7 9.42 C38.33 25, 38.53 44.28, 37.7 63.58 M37.7 9.42 C37.63 23.13, 37.78 38.17, 37.7 63.58 M37.7 63.58 C36.66 68.98, 34.43 71.36, 28.27 73 M37.7 63.58 C35.99 69.76, 32.8 74.62, 28.27 73 M28.27 73 C20.95 71.62, 15.09 73.07, 9.42 73 M28.27 73 C22.85 73.56, 18.7 73.38, 9.42 73 M9.42 73 C3.52 72.98, 0.99 68.35, 0 63.58 M9.42 73 C4.91 72.98, 1.87 70.26, 0 63.58 M0 63.58 C-1.9 41.53, -0.03 24.4, 0 9.42 M0 63.58 C1.07 42.31, 1.19 20.97, 0 9.42 M0 9.42 C-0.37 2.96, 1.16 -0.47, 9.42 0 M0 9.42 C1.31 1.28, 5.32 -2.02, 9.42 0" stroke="#1e1e1e" stroke-width="2" fill="none"></path></g><g stroke-linecap="round" transform="translate(1999.2425915351255 413.53099382718005) rotate(629.4111637994168 2.3934426229507153 3.5901639344262435)"><path d="M2.76 0.28 C3.26 0.29, 3.97 0.69, 4.26 1.17 C4.55 1.65, 4.49 2.34, 4.5 3.15 C4.51 3.96, 4.53 5.41, 4.32 6.04 C4.11 6.67, 3.71 6.77, 3.24 6.94 C2.76 7.11, 1.97 7.33, 1.47 7.05 C0.97 6.78, 0.45 6.05, 0.23 5.28 C0.01 4.52, 0.04 3.3, 0.18 2.46 C0.32 1.62, 0.66 0.61, 1.07 0.24 C1.48 -0.13, 2.42 0.19, 2.65 0.23 C2.89 0.26, 2.53 0.41, 2.49 0.43 M2.11 0.25 C2.62 0.2, 3.81 0.72, 4.24 1.12 C4.68 1.52, 4.65 1.99, 4.7 2.67 C4.74 3.35, 4.78 4.54, 4.52 5.19 C4.26 5.85, 3.67 6.26, 3.13 6.62 C2.59 6.98, 1.77 7.55, 1.27 7.36 C0.78 7.16, 0.36 6.19, 0.17 5.47 C-0.03 4.74, 0.03 3.66, 0.12 2.99 C0.22 2.32, 0.3 1.84, 0.72 1.43 C1.13 1.01, 2.29 0.76, 2.63 0.5 C2.96 0.24, 2.71 -0.03, 2.72 -0.12" stroke="none" stroke-width="0" fill="#1e1e1e"></path><path d="M2.43 -0.09 C2.93 -0.13, 3.38 0.23, 3.76 0.76 C4.14 1.3, 4.6 2.4, 4.7 3.13 C4.8 3.85, 4.54 4.5, 4.36 5.14 C4.17 5.78, 4.01 6.66, 3.59 6.98 C3.17 7.3, 2.31 7.27, 1.83 7.03 C1.34 6.79, 1.03 6.22, 0.68 5.53 C0.34 4.84, -0.28 3.7, -0.23 2.91 C-0.19 2.11, 0.49 1.2, 0.96 0.76 C1.42 0.32, 2.34 0.33, 2.57 0.27 C2.79 0.21, 2.3 0.41, 2.31 0.39 M1.82 -0.19 C2.33 -0.38, 3.23 -0.3, 3.64 0.15 C4.06 0.59, 4.2 1.62, 4.3 2.48 C4.4 3.34, 4.35 4.65, 4.23 5.31 C4.1 5.96, 3.91 6.18, 3.53 6.41 C3.16 6.64, 2.54 6.86, 1.97 6.68 C1.4 6.51, 0.45 5.91, 0.12 5.34 C-0.2 4.77, -0.01 3.91, 0.01 3.28 C0.03 2.64, -0.06 2.06, 0.24 1.56 C0.55 1.06, 1.51 0.48, 1.86 0.25 C2.21 0.03, 2.27 0.21, 2.32 0.23" stroke="#1e1e1e" stroke-width="2" fill="none"></path></g><g stroke-linecap="round" transform="translate(2197.4999999999995 155.75000000000023) rotate(0 35.5 35.5)"><path d="M22.11 2.54 C27.99 -0.15, 37.5 0.34, 44.2 2 C50.91 3.65, 57.77 7.24, 62.37 12.48 C66.96 17.72, 71.19 26.43, 71.79 33.44 C72.39 40.45, 69.69 48.7, 65.98 54.56 C62.27 60.41, 56.21 66.11, 49.54 68.57 C42.87 71.02, 32.75 71.12, 25.94 69.3 C19.13 67.48, 12.9 62.75, 8.69 57.63 C4.48 52.51, 1.28 45.26, 0.7 38.56 C0.11 31.87, 1.01 23.72, 5.19 17.46 C9.37 11.19, 22.1 3.72, 25.76 0.99 C29.42 -1.73, 27.12 0.53, 27.13 1.11 M26.63 0.79 C32.8 -0.74, 41.86 1.38, 48.44 3.97 C55.03 6.56, 62.36 10.73, 66.14 16.33 C69.91 21.94, 71.96 30.7, 71.11 37.59 C70.25 44.47, 65.65 52.3, 61.01 57.64 C56.37 62.99, 50.07 67.7, 43.28 69.64 C36.49 71.57, 26.77 71.81, 20.27 69.25 C13.78 66.68, 7.54 60.36, 4.31 54.24 C1.08 48.13, 0.08 39.58, 0.89 32.55 C1.69 25.51, 4.54 17.49, 9.14 12.02 C13.74 6.55, 25.17 1.48, 28.49 -0.27 C31.81 -2.02, 28.85 0.73, 29.05 1.54" stroke="#1e1e1e" stroke-width="2" fill="none"></path></g><g transform="translate(2186.4999999999995 229.75000000000023) rotate(0 51 12.5)"><text x="0" y="17.52" font-family="Virgil, Segoe UI Emoji" font-size="20px" fill="#1e1e1e" text-anchor="start" style="white-space: pre;" direction="ltr" dominant-baseline="alphabetic">Bouncer C</text></g><g stroke-linecap="round" transform="translate(1853.4999999999995 388.7500000000002) rotate(0 35.5 35.5)"><path d="M49.98 3.67 C56.11 6.06, 62.59 12.41, 66.11 18.22 C69.62 24.02, 71.72 31.88, 71.06 38.49 C70.4 45.09, 66.8 52.5, 62.15 57.86 C57.5 63.23, 50.07 68.8, 43.17 70.68 C36.27 72.55, 27.25 71.93, 20.75 69.09 C14.24 66.25, 7.65 59.68, 4.15 53.63 C0.65 47.59, -1.08 39.76, -0.25 32.8 C0.58 25.84, 4.42 17.06, 9.14 11.89 C13.87 6.72, 20.74 3.04, 28.08 1.76 C35.42 0.48, 48.78 3.43, 53.2 4.21 C57.62 4.99, 55.01 6, 54.59 6.45 M25.7 0.83 C32.24 -1.59, 42.05 -1.01, 48.65 1.77 C55.24 4.56, 61.35 11.34, 65.26 17.54 C69.17 23.74, 72.25 32.31, 72.12 38.95 C71.98 45.58, 68.84 52.4, 64.45 57.33 C60.06 62.27, 52.83 66.56, 45.78 68.58 C38.74 70.6, 28.92 71.84, 22.19 69.45 C15.46 67.06, 9.27 59.98, 5.41 54.24 C1.55 48.49, -1.38 41.8, -0.96 34.99 C-0.54 28.17, 3.32 19.04, 7.93 13.35 C12.53 7.66, 23.33 2.86, 26.66 0.86 C29.99 -1.14, 27.68 0.57, 27.91 1.36" stroke="none" stroke-width="0" fill="#b2f2bb"></path><path d="M35.66 -0.37 C42.44 -0.84, 52.02 3.1, 57.73 7.35 C63.45 11.61, 67.9 18.56, 69.94 25.19 C71.99 31.82, 72.48 40.67, 70.01 47.14 C67.53 53.6, 60.86 60.1, 55.09 63.99 C49.33 67.88, 42.12 70.36, 35.39 70.47 C28.67 70.58, 20.45 68.59, 14.75 64.65 C9.06 60.71, 3.25 53.7, 1.23 46.82 C-0.79 39.94, 0.45 30.16, 2.64 23.36 C4.83 16.55, 8.28 9.93, 14.34 5.98 C20.4 2.03, 34.42 0.46, 39 -0.32 C43.57 -1.1, 41.94 0.75, 41.79 1.3 M34.8 -1.08 C41.63 -2.08, 50.48 1.16, 55.99 5.09 C61.51 9.01, 65.63 15.78, 67.89 22.47 C70.14 29.15, 71.53 38.14, 69.52 45.22 C67.52 52.29, 61.5 60.51, 55.85 64.92 C50.21 69.32, 42.28 71.63, 35.64 71.65 C29 71.68, 21.56 69.12, 16 65.05 C10.44 60.97, 4.56 54.01, 2.27 47.2 C-0.02 40.38, 0.1 30.81, 2.25 24.15 C4.39 17.49, 9.55 11.21, 15.16 7.23 C20.78 3.25, 32.48 1.27, 35.93 0.27 C39.39 -0.74, 36.06 0.87, 35.88 1.2" stroke="#2f9e44" stroke-width="2" fill="none"></path></g><g transform="translate(1842.4999999999995 462.7500000000002) rotate(0 51 12.5)"><text x="0" y="17.52" font-family="Virgil, Segoe UI Emoji" font-size="20px" fill="#2f9e44" text-anchor="start" style="white-space: pre;" direction="ltr" dominant-baseline="alphabetic">Bouncer D</text></g><g stroke-linecap="round" transform="translate(1541.4999999999995 391.2500000000002) rotate(0 40.5 39)"><path d="M50.99 1.49 C57.87 2.76, 65.69 8.63, 70.69 13.9 C75.68 19.18, 79.77 26.12, 80.97 33.15 C82.16 40.17, 80.8 49.6, 77.85 56.03 C74.9 62.46, 69.52 68.09, 63.29 71.74 C57.05 75.4, 47.85 78.01, 40.42 77.95 C32.98 77.89, 24.88 75.32, 18.67 71.38 C12.46 67.44, 6.1 60.73, 3.16 54.34 C0.22 47.94, -0.03 39.79, 1.04 33.02 C2.12 26.25, 5.03 18.96, 9.63 13.71 C14.22 8.47, 21.05 3.32, 28.63 1.55 C36.21 -0.22, 50.33 2.54, 55.09 3.09 C59.86 3.65, 57.66 4.25, 57.22 4.86 M23.96 2.78 C29.99 -0.3, 38.6 0.7, 45.84 1.94 C53.09 3.17, 61.77 5.79, 67.42 10.18 C73.08 14.56, 77.59 21.6, 79.77 28.24 C81.95 34.88, 82.58 43.09, 80.5 50.03 C78.42 56.96, 72.92 65.43, 67.3 69.85 C61.69 74.26, 54.25 75.56, 46.8 76.53 C39.35 77.51, 29.55 78.7, 22.6 75.69 C15.66 72.68, 9.12 64.48, 5.11 58.46 C1.1 52.44, -1.96 46.36, -1.45 39.58 C-0.95 32.79, 4.09 23.86, 8.14 17.76 C12.19 11.67, 20.27 5.33, 22.84 3.01 C25.41 0.7, 23 3.08, 23.57 3.87" stroke="none" stroke-width="0" fill="#ffc9c9"></path><path d="M40.95 -0.57 C47.83 -1.02, 57.68 2.11, 63.93 6.32 C70.18 10.52, 75.76 17.95, 78.45 24.68 C81.14 31.4, 81.32 39.96, 80.08 46.66 C78.83 53.35, 76.02 59.89, 71 64.83 C65.98 69.77, 57.16 74.51, 49.94 76.3 C42.71 78.09, 34.54 77.68, 27.66 75.56 C20.79 73.44, 13.37 69.07, 8.67 63.58 C3.97 58.1, 0.19 49.75, -0.56 42.65 C-1.32 35.55, 0.65 27.15, 4.14 20.98 C7.62 14.81, 13.06 8.97, 20.34 5.63 C27.62 2.29, 42.19 1.45, 47.8 0.95 C53.4 0.44, 54.14 1.99, 53.98 2.6 M33.04 1.22 C40.09 -0.57, 50.21 0.85, 57.08 3.49 C63.95 6.12, 70.15 11.48, 74.26 17.04 C78.37 22.6, 81.39 29.82, 81.73 36.84 C82.07 43.87, 79.99 52.96, 76.29 59.2 C72.59 65.44, 66.06 71.13, 59.51 74.3 C52.95 77.47, 44.39 79.3, 36.94 78.22 C29.5 77.14, 20.88 72.36, 14.85 67.84 C8.81 63.32, 2.76 57.32, 0.71 51.08 C-1.33 44.85, 0.6 37.11, 2.56 30.43 C4.53 23.75, 7.09 15.96, 12.48 11.01 C17.87 6.07, 31.12 2.33, 34.91 0.76 C38.7 -0.8, 35.36 1.04, 35.22 1.63" stroke="#e03131" stroke-width="2" fill="none"></path></g><g transform="translate(1527.4999999999995 474.2500000000002) rotate(0 68.57999999999993 13.5)"><text x="0" y="18.921599999999994" font-family="Virgil, Segoe UI Emoji" font-size="21.599999999999994px" fill="#e03131" text-anchor="start" style="white-space: pre;" direction="ltr" dominant-baseline="alphabetic">Evil dancer</text></g><g stroke-linecap="round"><g transform="translate(1749.4999999999995 394.2500000000002) rotate(0 35.64978677092108 38.85659572742878)"><path d="M0.08 -0.91 C11.79 12, 58.58 65.35, 70.29 78.63 M-1.33 1.22 C10.76 14.3, 60.86 64.24, 72.63 76.83" stroke="#e03131" stroke-width="2" fill="none"></path></g></g><mask></mask><g stroke-linecap="round"><g transform="translate(1817.4999999999995 392.2500000000002) rotate(0 -31.75331899059006 38.829005227657035)"><path d="M-0.71 0.63 C-11.49 13.74, -54.24 65.08, -64.63 77.75 M1.12 -0.09 C-9.28 12.76, -51.51 63.05, -62.24 76.02" stroke="#e03131" stroke-width="2" fill="none"></path></g></g><mask></mask><g stroke-linecap="round"><g transform="translate(1603.4999999998686 517.2436883958976) rotate(0 287.50790376837404 164.19759509808904)"><path d="M-0.63 0.75 C47.39 54.59, 191.33 295.4, 287.38 323.65 C383.42 351.91, 527.9 196.15, 575.64 170.29 M1.25 0.1 C49.25 54.05, 191.23 296.94, 286.93 324.99 C382.64 353.04, 527.68 194.37, 575.48 168.39" stroke="#e03131" stroke-width="2" fill="none"></path></g><g transform="translate(1603.4999999998686 517.2436883958976) rotate(0 287.50790376837404 164.19759509808904)"><path d="M562.14 189.53 C566.49 186.12, 567.81 181.32, 575.48 168.39 M562.14 189.53 C566.77 181.54, 571.62 173.54, 575.48 168.39" stroke="#e03131" stroke-width="2" fill="none"></path></g><g transform="translate(1603.4999999998686 517.2436883958976) rotate(0 287.50790376837404 164.19759509808904)"><path d="M551.67 176.01 C558.61 175.91, 562.46 174.37, 575.48 168.39 M551.67 176.01 C560.09 173.11, 568.83 170.11, 575.48 168.39" stroke="#e03131" stroke-width="2" fill="none"></path></g></g><mask></mask><g stroke-linecap="round" transform="translate(1913.4999999999995 62.75000000000023) rotate(0 92 115.5)"><path d="M32 0 C77.82 -0.18, 126.31 -0.34, 152 0 M32 0 C61.97 0.94, 92.67 1.69, 152 0 M152 0 C173.45 -1.45, 184.35 9.01, 184 32 M152 0 C171.6 -2.03, 184.04 9.89, 184 32 M184 32 C186.18 70.38, 185.8 107.19, 184 199 M184 32 C185.6 81.94, 185.64 132.08, 184 199 M184 199 C185.53 220.98, 173.4 229.27, 152 231 M184 199 C182.1 220.5, 175.19 233.19, 152 231 M152 231 C121.89 233.85, 91.63 231.61, 32 231 M152 231 C117.67 229.91, 83.16 229.84, 32 231 M32 231 C10.5 230.22, 0.95 221.1, 0 199 M32 231 C10.07 232.13, 2 222.29, 0 199 M0 199 C0.28 148.68, -0.82 98.37, 0 32 M0 199 C1.01 137.85, 0.75 78.38, 0 32 M0 32 C1.56 12.64, 12.57 -0.79, 32 0 M0 32 C1.84 8.76, 9.91 1.29, 32 0" stroke="#1e1e1e" stroke-width="2" fill="none"></path></g><g transform="translate(1937.4999999999995 85.75000000000023) rotate(0 72.32499694824219 12.5)"><text x="0" y="17.52" font-family="Virgil, Segoe UI Emoji" font-size="20px" fill="#1e1e1e" text-anchor="start" style="white-space: pre;" direction="ltr" dominant-baseline="alphabetic">Denied persons</text></g><g transform="translate(1932.4999999999995 148.25000000000023) rotate(0 53.8125 12.5)"><text x="0" y="17.52" font-family="Virgil, Segoe UI Emoji" font-size="20px" fill="#e03131" text-anchor="start" style="white-space: pre;" direction="ltr" dominant-baseline="alphabetic">Evil dancer</text></g><g transform="translate(2076.4999999999995 786.2500000000002) rotate(0 122.625 37.5)"><text x="0" y="17.52" font-family="Virgil, Segoe UI Emoji" font-size="20px" fill="#1e1e1e" text-anchor="start" style="white-space: pre;" direction="ltr" dominant-baseline="alphabetic">Bouncer A will know that</text><text x="0" y="42.519999999999996" font-family="Virgil, Segoe UI Emoji" font-size="20px" fill="#1e1e1e" text-anchor="start" style="white-space: pre;" direction="ltr" dominant-baseline="alphabetic">Evil dancer needs to be </text><text x="0" y="67.52" font-family="Virgil, Segoe UI Emoji" font-size="20px" fill="#1e1e1e" text-anchor="start" style="white-space: pre;" direction="ltr" dominant-baseline="alphabetic">denied</text></g><g mask="url(#mask-HOTBsUtfSwLNHjto1QfNI)" stroke-linecap="round"><g transform="translate(409.49999999999955 406.5) rotate(0 15.80685516477837 -98.8941934797913)"><path d="M0.99 -0.16 C11.05 -25.01, 64.95 -115.47, 60 -148.38 C55.05 -181.3, -13.97 -189.67, -28.71 -197.63 M0.05 -1.28 C10.08 -26.04, 63.95 -114.49, 59.58 -147.05 C55.2 -179.61, -11.52 -188.11, -26.18 -196.65" stroke="#2f9e44" stroke-width="2" fill="none"></path></g><g transform="translate(409.49999999999955 406.5) rotate(0 15.80685516477837 -98.8941934797913)"><path d="M-1.19 -197.08 C-8.16 -195.09, -15.25 -197.82, -26.18 -196.65 M-1.19 -197.08 C-7.47 -197.35, -12.82 -196.65, -26.18 -196.65" stroke="#2f9e44" stroke-width="2" fill="none"></path></g><g transform="translate(409.49999999999955 406.5) rotate(0 15.80685516477837 -98.8941934797913)"><path d="M-6.76 -180.91 C-12.33 -183.31, -17.93 -190.38, -26.18 -196.65 M-6.76 -180.91 C-11.6 -185.22, -15.57 -188.52, -26.18 -196.65" stroke="#2f9e44" stroke-width="2" fill="none"></path></g></g><mask id="mask-HOTBsUtfSwLNHjto1QfNI"><rect x="0" y="0" fill="#fff" width="596.4999999999995" height="703.5"></rect><rect x="439.262500762939" y="246" fill="#000" width="58.474998474121094" height="25" opacity="1"></rect></mask><g transform="translate(439.262500762939 246) rotate(0 -13.955645598161084 61.6058065202087)"><text x="29.237499237060547" y="17.52" font-family="Virgil, Segoe UI Emoji" font-size="20px" fill="#2f9e44" text-anchor="middle" style="white-space: pre;" direction="ltr" dominant-baseline="alphabetic">writes</text></g><g mask="url(#mask-ykU7NC9V-i4lbwsXn5k6B)" stroke-linecap="round"><g transform="translate(1892.4999999999995 380.5) rotate(0 12.145937661753123 -103.80799798630177)"><path d="M-1.11 0.12 C-5.32 -18.17, -34.1 -74.44, -25.24 -109.09 C-16.37 -143.73, 39.53 -191.52, 52.09 -207.74 M0.51 -0.86 C-3.88 -19.02, -34.87 -73.27, -26.31 -107.6 C-17.74 -141.92, 39.2 -189.97, 51.9 -206.8" stroke="#2f9e44" stroke-width="2" fill="none"></path></g><g transform="translate(1892.4999999999995 380.5) rotate(0 12.145937661753123 -103.80799798630177)"><path d="M42.12 -183.79 C45.13 -191.03, 47.74 -195.74, 51.9 -206.8 M42.12 -183.79 C44.03 -189.37, 47.25 -194.97, 51.9 -206.8" stroke="#2f9e44" stroke-width="2" fill="none"></path></g><g transform="translate(1892.4999999999995 380.5) rotate(0 12.145937661753123 -103.80799798630177)"><path d="M29.62 -195.46 C36.46 -199.07, 42.83 -200.27, 51.9 -206.8 M29.62 -195.46 C34.42 -198.32, 40.63 -201.13, 51.9 -206.8" stroke="#2f9e44" stroke-width="2" fill="none"></path></g></g><mask id="mask-ykU7NC9V-i4lbwsXn5k6B"><rect x="0" y="0" fill="#fff" width="2068.4999999999995" height="687.5"></rect><rect x="1838.262500762939" y="259" fill="#000" width="58.474998474121094" height="25" opacity="1"></rect></mask><g transform="translate(1838.262500762939 259) rotate(0 66.38343689881367 17.69200201369823)"><text x="29.237499237060547" y="17.52" font-family="Virgil, Segoe UI Emoji" font-size="20px" fill="#2f9e44" text-anchor="middle" style="white-space: pre;" direction="ltr" dominant-baseline="alphabetic">writes</text></g><g mask="url(#mask-sMBLw8-qLniszDDQHjUjX)" stroke-linecap="round"><g transform="translate(2187.4999999999995 596.5) rotate(0 -72.98948204966246 -209.96137503075417)"><path d="M-0.83 -0.17 C-11.32 -38.16, -39.32 -157.68, -63.53 -227.31 C-87.74 -296.94, -132.25 -385.99, -146.1 -417.96 M0.94 -1.3 C-9.71 -39.69, -40.12 -159.32, -64.76 -229.07 C-89.4 -298.81, -133.26 -388.25, -146.92 -419.76" stroke="#f08c00" stroke-width="2" fill="none"></path></g><g transform="translate(2187.4999999999995 596.5) rotate(0 -72.98948204966246 -209.96137503075417)"><path d="M-129.39 -401.93 C-134.21 -407.46, -137.23 -411.26, -146.92 -419.76 M-129.39 -401.93 C-135.42 -408.41, -142.71 -415.37, -146.92 -419.76" stroke="#f08c00" stroke-width="2" fill="none"></path></g><g transform="translate(2187.4999999999995 596.5) rotate(0 -72.98948204966246 -209.96137503075417)"><path d="M-144.95 -394.83 C-145.86 -402.06, -144.92 -407.66, -146.92 -419.76 M-144.95 -394.83 C-144.92 -404.04, -146.2 -413.75, -146.92 -419.76" stroke="#f08c00" stroke-width="2" fill="none"></path></g></g><mask id="mask-sMBLw8-qLniszDDQHjUjX"><rect x="0" y="0" fill="#fff" width="2433.4999999999995" height="1115.5"></rect><rect x="2096.83749961853" y="356" fill="#000" width="55.32500076293945" height="25" opacity="1"></rect></mask><g transform="translate(2096.83749961853 356) rotate(0 17.67301833180727 30.53862496924583)"><text x="27.662500381469727" y="17.52" font-family="Virgil, Segoe UI Emoji" font-size="20px" fill="#f08c00" text-anchor="middle" style="white-space: pre;" direction="ltr" dominant-baseline="alphabetic">reads</text></g><g stroke-linecap="round"><g transform="translate(2188.850213229079 674.2327874857467) rotate(0 35.35225178364658 38.55584840711208)"><path d="M-0.21 -0.19 C11.48 12.65, 58.26 64.44, 70.19 77.29 M-1.77 -1.34 C10.29 11.63, 60.38 65.28, 72.48 78.45" stroke="#e03131" stroke-width="2" fill="none"></path></g></g><mask></mask><g stroke-linecap="round"><g transform="translate(2256.850213229079 672.2327874857467) rotate(0 -31.70826050963251 38.08656905503943)"><path d="M-0.81 -0.71 C-11.38 11.97, -52.97 62.94, -63.63 75.92 M0.97 1.53 C-9.71 14.34, -53.84 64.05, -64.38 76.88" stroke="#e03131" stroke-width="2" fill="none"></path></g></g><mask></mask><g transform="translate(334.49999999999955 887.5) rotate(0 332.11248779296875 22.5)"><text x="0" y="31.536" font-family="Virgil, Segoe UI Emoji" font-size="36px" fill="#1e1e1e" text-anchor="start" style="white-space: pre;" direction="ltr" dominant-baseline="alphabetic">Each bouncer have their own "memory"</text></g><g transform="translate(1997.3875122070308 887) rotate(0 214.9375 22.5)"><text x="0" y="31.536" font-family="Virgil, Segoe UI Emoji" font-size="36px" fill="#1e1e1e" text-anchor="start" style="white-space: pre;" direction="ltr" dominant-baseline="alphabetic">Bouncers share "memory"</text></g></svg>